SplineFontDB: 3.0
FontName: Bodoni-24-Book
FullName: Bodoni* 24 Book
FamilyName: Bodoni* 24
Weight: Book
Copyright: Copyright (c) 2020, indestructible type* (https://github.com/indestructible-type)
Version: 002.1
ItalicAngle: 0
UnderlinePosition: -200
UnderlineWidth: 0
Ascent: 1600
Descent: 400
InvalidEm: 0
LayerCount: 2
Layer: 0 0 "Back" 1
Layer: 1 0 "Fore" 0
PreferredKerning: 4
XUID: [1021 31 -699969567 16487490]
FSType: 0
OS2Version: 0
OS2_WeightWidthSlopeOnly: 0
OS2_UseTypoMetrics: 1
CreationTime: 1460762150
ModificationTime: 1580247222
PfmFamily: 17
TTFWeight: 400
TTFWidth: 5
LineGap: 0
VLineGap: 0
OS2TypoAscent: 2000
OS2TypoAOffset: 0
OS2TypoDescent: -800
OS2TypoDOffset: 0
OS2TypoLinegap: 0
OS2WinAscent: 2000
OS2WinAOffset: 0
OS2WinDescent: 800
OS2WinDOffset: 0
HheadAscent: 2000
HheadAOffset: 0
HheadDescent: -800
HheadDOffset: 0
OS2CapHeight: 1500
OS2XHeight: 920
OS2FamilyClass: 768
OS2Vendor: 'it* '
OS2UnicodeRanges: 00000001.00000000.00000000.00000000
Lookup: 1 0 0 "'ss02' Style Set 2 lookup 4" { "'ss02' Style Set 2 lookup 4-1"  } ['ss02' ('DFLT' <'dflt' > 'grek' <'dflt' > 'latn' <'dflt' > ) ]
Lookup: 1 0 0 "'ss03' Style Set 3 lookup 5" { "'ss03' Style Set 3 lookup 5-1"  } ['ss03' ('DFLT' <'dflt' > 'grek' <'dflt' > 'latn' <'dflt' > ) ]
Lookup: 1 0 0 "'ss01' Style Set 1 lookup 2" { "'ss01' Style Set 1 lookup 2-1"  } ['ss01' ('DFLT' <'dflt' > 'grek' <'dflt' > 'latn' <'dflt' > ) ]
Lookup: 5 0 0 "'calt' Contextual Alternates lookup 3" { "'calt' Contextual Alternates lookup 3-1"  } ['calt' ('DFLT' <'dflt' > 'grek' <'dflt' > 'latn' <'dflt' > ) ]
Lookup: 4 0 1 "'liga' Standard Ligatures lookup 0" { "'liga' Standard Ligatures lookup 0-1"  } ['liga' ('DFLT' <'dflt' > 'grek' <'dflt' > 'latn' <'dflt' > ) ]
Lookup: 258 0 0 "'kern' Horizontal Kerning lookup 0" { "kerning like they all do" [150,0,6] } ['kern' ('DFLT' <'dflt' > 'grek' <'dflt' > 'latn' <'dflt' > ) ]
MarkAttachClasses: 1
DEI: 91125
KernClass2: 31 27 "kerning like they all do"

StartChar: ampersand
Encoding: 38 38 0
GlifName: ampersand
Width: 1607
Flags: HMW
LayerCount: 2
Fore
SplineSet
694 873 m 9
 685 884 l 1
 781 943 902 1056 902 1260 c 0
 902 1354 868 1504 718 1504 c 0
 564 1504 512 1386 512 1280 c 0
 512 1210 562 1108 648 980 c 2
 1278 18 l 1
 1538 18 l 1
 1538 0 l 1
 1070 0 l 1
 408 980 l 2
 356 1056 316 1156 316 1226 c 0
 316 1406 486 1520 718 1520 c 0
 932 1520 1095 1415 1095 1255 c 0
 1095 1038 905 982 694 873 c 9
557 807 m 1
 563 795 l 1
 392 703 300 575 300 355 c 0
 300 195 430 27 618 27 c 0
 1010 27 1307 497 1345 916 c 1
 1364 916 l 1
 1320 470 1004 -20 538 -20 c 0
 272 -20 80 114 80 345 c 0
 80 636 481 770 557 807 c 1
1088 920 m 1
 1568 920 l 1
 1568 902 l 1
 1088 902 l 1
 1088 920 l 1
EndSplineSet
EndChar

StartChar: period
Encoding: 46 46 1
GlifName: period
Width: 399
Flags: HMW
LayerCount: 2
Fore
SplineSet
80 100 m 0
 80 166 134 220 200 220 c 0
 266 220 320 166 320 100 c 0
 320 34 266 -20 200 -20 c 0
 134 -20 80 34 80 100 c 0
EndSplineSet
EndChar

StartChar: zero
Encoding: 48 48 2
GlifName: zero
Width: 1239
Flags: HMW
LayerCount: 2
Fore
SplineSet
620 -20 m 0
 294 -20 80 324 80 750 c 0
 80 1176 314 1520 620 1520 c 0
 926 1520 1160 1176 1160 750 c 0
 1160 324 946 -20 620 -20 c 0
620 1503 m 0
 372 1503 310 1114 310 750 c 0
 310 386 352 -3 620 -3 c 0
 888 -3 930 386 930 750 c 0
 930 1114 868 1503 620 1503 c 0
EndSplineSet
EndChar

StartChar: one
Encoding: 49 49 3
GlifName: one
Width: 869
VWidth: 2309
Flags: HMW
LayerCount: 2
Fore
SplineSet
100 18 m 1
 770 18 l 1
 770 0 l 1
 100 0 l 1
 100 18 l 1
134 1500 m 1
 550 1500 l 1
 550 5 l 1
 360 5 l 1
 360 1482 l 1
 134 1482 l 1
 134 1500 l 1
EndSplineSet
EndChar

StartChar: two
Encoding: 50 50 4
GlifName: two
Width: 1099
VWidth: 2309
Flags: HMW
LayerCount: 2
Fore
SplineSet
1030 0 m 1
 80 0 l 1
 80 130 l 1
 518 556 l 2
 696 729 788 912 788 1100 c 0
 788 1325 694 1490 487 1490 c 0
 275 1490 115 1314 125 1094 c 1
 145 1132 177 1164 238 1164 c 0
 296 1164 356 1122 356 1052 c 0
 356 972 300 924 230 924 c 0
 160 924 103 975 103 1095 c 0
 103 1329 255 1520 550 1520 c 0
 832 1520 988 1340 988 1140 c 0
 988 940 830 832 722 726 c 2
 159 180 l 1
 1012 180 l 1
 1012 330 l 1
 1030 330 l 1
 1030 0 l 1
EndSplineSet
EndChar

StartChar: three
Encoding: 51 51 5
GlifName: three
Width: 1039
VWidth: 2309
Flags: HMW
LayerCount: 2
Fore
SplineSet
960 400 m 0
 960 140 742 -20 460 -20 c 0
 176 -20 48 127 48 271 c 0
 48 353 98 401 168 401 c 0
 228 401 276 361 276 289 c 0
 276 225 220 180 162 180 c 0
 112 180 81 207 70 239 c 1
 79 127 202 2 437 2 c 0
 675 2 758 212 758 400 c 0
 758 548 702 801 364 801 c 1
 364 813 l 1
 846 813 960 620 960 400 c 0
364 807 m 1
 364 819 l 1
 682 819 698 1054 698 1182 c 0
 698 1330 624 1499 466 1499 c 0
 317 1499 164 1413 134 1287 c 1
 155 1322 188 1338 222 1338 c 0
 280 1338 336 1299 336 1229 c 0
 336 1149 272 1117 222 1117 c 0
 162 1117 108 1159 108 1241 c 0
 108 1385 276 1518 480 1518 c 0
 702 1518 900 1402 900 1182 c 0
 900 982 826 807 364 807 c 1
EndSplineSet
EndChar

StartChar: four
Encoding: 52 52 6
GlifName: four
Width: 1189
VWidth: 2309
Flags: HMW
LayerCount: 2
Fore
SplineSet
1100 18 m 1
 1100 0 l 1
 570 0 l 1
 570 18 l 1
 760 18 l 1
 760 1421 l 1
 103 439 l 1
 1170 439 l 1
 1170 420 l 1
 68 420 l 1
 790 1500 l 1
 950 1500 l 1
 950 18 l 1
 1100 18 l 1
EndSplineSet
Substitution2: "'ss03' Style Set 3 lookup 5-1" four.alt
EndChar

StartChar: five
Encoding: 53 53 7
GlifName: five
Width: 1000
VWidth: 2309
Flags: HMW
LayerCount: 2
Fore
SplineSet
870 1320 m 1
 152 1320 l 1
 152 754 l 1
 134 754 l 1
 134 1500 l 1
 852 1500 l 1
 852 1610 l 1
 870 1610 l 1
 870 1320 l 1
88 208 m 1
 114 100 252 2 412 2 c 0
 670 2 730 272 730 460 c 0
 730 688 639 912 461 912 c 0
 295 912 186 816 156 754 c 1
 139 754 l 1
 171 828 302 940 504 940 c 0
 766 940 940 760 940 460 c 0
 940 200 734 -20 432 -20 c 0
 228 -20 60 114 60 258 c 0
 60 340 114 382 174 382 c 0
 224 382 288 350 288 270 c 0
 288 200 232 160 174 160 c 0
 136 160 102 185 88 208 c 1
EndSplineSet
EndChar

StartChar: six
Encoding: 54 54 8
GlifName: six
Width: 1119
VWidth: 2309
Flags: HMW
LayerCount: 2
Fore
SplineSet
860 500 m 0
 860 768 756 950 578 950 c 0
 379 950 300 780 300 560 c 1
 284 560 l 1
 284 794 360 980 622 980 c 0
 824 980 1060 840 1060 500 c 0
 1060 200 890 -20 588 -20 c 0
 286 -20 100 200 100 620 c 0
 100 1106 464 1520 910 1520 c 1
 910 1503 l 1
 562 1503 302 1107 302 668 c 1
 300 560 l 1
 300 292 376 -1 594 -1 c 0
 812 -1 860 272 860 500 c 0
EndSplineSet
EndChar

StartChar: seven
Encoding: 55 55 9
GlifName: seven
Width: 1009
VWidth: 2309
Flags: HMW
LayerCount: 2
Fore
SplineSet
336 152 m 0
 336 310 484 518 596 736 c 0
 674 886 796 1136 878 1310 c 1
 98 1310 l 1
 98 1160 l 1
 80 1160 l 1
 80 1500 l 1
 990 1500 l 1
 990 1500 754 1012 616 734 c 0
 523 547 484 484 484 396 c 0
 484 250 596 220 596 116 c 0
 596 42 556 -20 468 -20 c 0
 390 -20 336 29 336 152 c 0
EndSplineSet
EndChar

StartChar: eight
Encoding: 56 56 10
GlifName: eight
Width: 1099
VWidth: 2309
Flags: HMW
LayerCount: 2
Fore
SplineSet
320 1120 m 0
 320 952 372 781 550 781 c 0
 728 781 780 952 780 1120 c 0
 780 1288 728 1501 550 1501 c 0
 372 1501 320 1288 320 1120 c 0
120 1120 m 0
 120 1340 268 1520 550 1520 c 0
 832 1520 980 1340 980 1120 c 0
 980 900 832 768 550 768 c 0
 268 768 120 900 120 1120 c 0
280 380 m 0
 280 192 352 -1 550 -1 c 0
 748 -1 820 192 820 380 c 0
 820 568 748 760 550 760 c 0
 352 760 280 568 280 380 c 0
80 380 m 0
 80 620 228 774 550 774 c 0
 872 774 1020 620 1020 380 c 0
 1020 140 872 -20 550 -20 c 0
 228 -20 80 140 80 380 c 0
EndSplineSet
EndChar

StartChar: A
Encoding: 65 65 12
GlifName: A_
Width: 1501
Flags: HMW
LayerCount: 2
Fore
SplineSet
47 18 m 1
 487 18 l 1
 487 0 l 1
 47 0 l 1
 47 18 l 1
875 18 m 1
 1455 18 l 1
 1455 0 l 1
 875 0 l 1
 875 18 l 1
413 498 m 1
 1054 498 l 1
 1054 479 l 1
 413 479 l 1
 413 498 l 1
689 1256 m 1
 250 0 l 1
 230 0 l 1
 765 1530 l 1
 783 1530 l 1
 1313 0 l 1
 1094 0 l 1
 689 1256 l 1
EndSplineSet
EndChar

StartChar: B
Encoding: 66 66 13
GlifName: B_
Width: 1279
Flags: HMW
LayerCount: 2
Fore
SplineSet
627 766 m 2
 407 766 l 1
 407 780 l 1
 627 780 l 2
 779 780 927 872 927 1110 c 0
 927 1348 779 1482 627 1482 c 2
 47 1482 l 1
 47 1500 l 1
 627 1500 l 2
 929 1500 1127 1390 1127 1130 c 0
 1127 870 949 766 627 766 c 2
227 1500 m 1
 417 1500 l 1
 417 0 l 1
 227 0 l 1
 227 1500 l 1
667 0 m 2
 47 0 l 1
 47 18 l 1
 646 18 l 2
 818 18 967 182 967 420 c 0
 967 658 818 761 646 761 c 2
 407 761 l 1
 407 774 l 1
 667 774 l 2
 949 774 1187 680 1187 420 c 0
 1187 120 989 0 667 0 c 2
EndSplineSet
EndChar

StartChar: C
Encoding: 67 67 14
GlifName: C_
Width: 1374
Flags: HMW
LayerCount: 2
Fore
SplineSet
1235 1500 m 1
 1251 1500 l 1
 1251 1090 l 1
 1236 1219 1179 1312 1116 1381 c 1
 1235 1500 l 1
1251 1090 m 1
 1233 1090 l 1
 1229 1330 1018 1495 794 1495 c 0
 446 1495 324 1114 324 750 c 0
 324 386 446 5 794 5 c 0
 1066 5 1248 190 1252 410 c 1
 1271 410 l 1
 1271 164 1060 -20 774 -20 c 0
 368 -20 94 304 94 750 c 0
 94 1196 368 1520 774 1520 c 0
 1030 1520 1251 1336 1251 1090 c 1
1271 410 m 1
 1271 0 l 1
 1255 0 l 1
 1144 130 l 1
 1204 199 1254 274 1271 410 c 1
EndSplineSet
EndChar

StartChar: D
Encoding: 68 68 15
GlifName: D_
Width: 1420
Flags: HMW
LayerCount: 2
Fore
SplineSet
227 1500 m 1
 417 1500 l 1
 417 0 l 1
 227 0 l 1
 227 1500 l 1
606 0 m 2
 47 0 l 1
 47 18 l 1
 606 18 l 2
 974 18 1097 386 1097 750 c 0
 1097 1114 954 1482 606 1482 c 2
 47 1482 l 1
 47 1500 l 1
 606 1500 l 2
 1052 1500 1327 1176 1327 750 c 0
 1327 324 1032 0 606 0 c 2
EndSplineSet
EndChar

StartChar: E
Encoding: 69 69 16
GlifName: E_
Width: 1193
Flags: HMW
LayerCount: 2
Fore
SplineSet
1106 450 m 1
 1124 450 l 1
 1124 0 l 1
 47 0 l 1
 47 18 l 1
 737 18 l 2
 1011 18 1106 196 1106 450 c 1
227 1500 m 1
 417 1500 l 1
 417 0 l 1
 227 0 l 1
 227 1500 l 1
47 1500 m 1
 1104 1500 l 1
 1104 1090 l 1
 1085 1090 l 1
 1085 1304 991 1482 757 1482 c 2
 47 1482 l 1
 47 1500 l 1
746 556 m 1
 746 690 651 767 537 767 c 2
 377 767 l 1
 377 786 l 1
 537 786 l 2
 651 786 746 852 746 986 c 1
 764 986 l 1
 764 556 l 1
 746 556 l 1
EndSplineSet
EndChar

StartChar: F
Encoding: 70 70 17
GlifName: F_
Width: 1153
Flags: HMW
LayerCount: 2
Fore
SplineSet
47 1500 m 1
 1084 1500 l 1
 1084 1090 l 1
 1066 1090 l 1
 1066 1304 971 1482 737 1482 c 2
 47 1482 l 1
 47 1500 l 1
47 18 m 1
 617 18 l 1
 617 0 l 1
 47 0 l 1
 47 18 l 1
227 1500 m 1
 417 1500 l 1
 417 0 l 1
 227 0 l 1
 227 1500 l 1
765 536 m 1
 765 670 681 737 507 737 c 2
 377 737 l 1
 377 755 l 1
 507 755 l 2
 681 755 765 812 765 946 c 1
 783 946 l 1
 783 536 l 1
 765 536 l 1
EndSplineSet
EndChar

StartChar: G
Encoding: 71 71 18
GlifName: G_
Width: 1444
Flags: HMW
LayerCount: 2
Fore
SplineSet
1251 1090 m 1
 1239 1205 1183 1314 1116 1383 c 1
 1235 1500 l 1
 1251 1500 l 1
 1251 1090 l 1
875 581 m 1
 1415 581 l 1
 1415 560 l 1
 875 560 l 1
 875 581 l 1
1084 568 m 1
 1294 568 l 1
 1294 330 l 1
 1234 204 1071 -20 745 -20 c 0
 329 -20 94 304 94 750 c 0
 94 1196 368 1520 774 1520 c 0
 1030 1520 1251 1336 1251 1090 c 1
 1233 1090 l 1
 1229 1333 1020 1495 794 1495 c 0
 446 1495 324 1114 324 750 c 0
 324 386 407 -1 745 -1 c 0
 993 -1 1064 206 1084 250 c 1
 1084 568 l 1
EndSplineSet
EndChar

StartChar: H
Encoding: 72 72 19
GlifName: H_
Width: 1493
Flags: HMW
LayerCount: 2
Fore
SplineSet
377 750 m 1
 1117 750 l 1
 1117 731 l 1
 377 731 l 1
 377 750 l 1
877 18 m 1
 1447 18 l 1
 1447 0 l 1
 877 0 l 1
 877 18 l 1
47 18 m 1
 617 18 l 1
 617 0 l 1
 47 0 l 1
 47 18 l 1
877 1500 m 1
 1447 1500 l 1
 1447 1482 l 1
 877 1482 l 1
 877 1500 l 1
47 1500 m 1
 617 1500 l 1
 617 1482 l 1
 47 1482 l 1
 47 1500 l 1
1077 1500 m 1
 1267 1500 l 1
 1267 0 l 1
 1077 0 l 1
 1077 1500 l 1
227 1500 m 1
 417 1500 l 1
 417 0 l 1
 227 0 l 1
 227 1500 l 1
EndSplineSet
EndChar

StartChar: I
Encoding: 73 73 20
GlifName: I_
Width: 743
Flags: HMW
LayerCount: 2
Fore
SplineSet
47 18 m 1
 697 18 l 1
 697 0 l 1
 47 0 l 1
 47 18 l 1
47 1500 m 1
 697 1500 l 1
 697 1482 l 1
 47 1482 l 1
 47 1500 l 1
267 1500 m 1
 457 1500 l 1
 457 0 l 1
 267 0 l 1
 267 1500 l 1
EndSplineSet
EndChar

StartChar: J
Encoding: 74 74 21
GlifName: J_
Width: 882
Flags: HMW
LayerCount: 2
Fore
SplineSet
187 1500 m 1
 837 1500 l 1
 837 1482 l 1
 187 1482 l 1
 187 1500 l 1
446 1500 m 1
 637 1500 l 1
 637 340 l 1
 597 200 517 -60 278 -60 c 0
 124 -60 45 67 45 167 c 0
 45 251 98 297 158 297 c 0
 208 297 271 261 271 179 c 0
 271 104 212 68 150 68 c 0
 111 68 88 80 81 83 c 1
 102 40 157 -42 276 -42 c 0
 434 -42 446 100 446 380 c 2
 446 1500 l 1
EndSplineSet
Substitution2: "'ss02' Style Set 2 lookup 4-1" J.alt
EndChar

StartChar: K
Encoding: 75 75 22
GlifName: K_
Width: 1377
Flags: HMW
LayerCount: 2
Fore
SplineSet
47 18 m 1
 617 18 l 1
 617 0 l 1
 47 0 l 1
 47 18 l 1
47 1500 m 1
 617 1500 l 1
 617 1482 l 1
 47 1482 l 1
 47 1500 l 1
227 1500 m 1
 417 1500 l 1
 417 0 l 1
 227 0 l 1
 227 1500 l 1
267 434 m 1
 241 434 l 1
 1029 1496 l 1
 1055 1496 l 1
 267 434 l 1
737 18 m 1
 1356 18 l 1
 1356 0 l 1
 737 0 l 1
 737 18 l 1
1267 1482 m 1
 787 1482 l 1
 787 1500 l 1
 1267 1500 l 1
 1267 1482 l 1
1201 0 m 1
 961 0 l 1
 514 791 l 1
 635 950 l 1
 1201 0 l 1
EndSplineSet
EndChar

StartChar: L
Encoding: 76 76 23
GlifName: L_
Width: 1164
Flags: HMW
LayerCount: 2
Fore
SplineSet
227 1500 m 1
 417 1500 l 1
 417 0 l 1
 227 0 l 1
 227 1500 l 1
47 1500 m 1
 597 1500 l 1
 597 1482 l 1
 47 1482 l 1
 47 1500 l 1
1113 0 m 1
 47 0 l 1
 47 18 l 1
 727 18 l 2
 1041 18 1095 196 1095 450 c 1
 1113 450 l 1
 1113 0 l 1
EndSplineSet
EndChar

StartChar: M
Encoding: 77 77 24
GlifName: M_
Width: 1689
Flags: HMW
LayerCount: 2
Fore
SplineSet
1644 1500 m 1
 1644 1482 l 1
 1503 1482 l 1
 1503 0 l 1
 1313 0 l 1
 1313 1500 l 1
 1644 1500 l 1
57 18 m 1
 371 18 l 1
 371 0 l 1
 57 0 l 1
 57 18 l 1
1153 18 m 1
 1644 18 l 1
 1644 0 l 1
 1153 0 l 1
 1153 18 l 1
862 254 m 1
 1300 1500 l 1
 1319 1500 l 1
 788 -20 l 1
 766 -20 l 1
 210 1500 l 1
 401 1500 l 1
 862 254 l 1
200 1482 m 1
 47 1482 l 1
 47 1500 l 1
 219 1500 l 1
 219 0 l 1
 200 0 l 1
 200 1482 l 1
EndSplineSet
EndChar

StartChar: N
Encoding: 78 78 25
GlifName: N_
Width: 1496
Flags: HMW
LayerCount: 2
Fore
SplineSet
1221 1500 m 1
 1240 1500 l 1
 1240 -20 l 1
 1216 -20 l 1
 254 1500 l 1
 483 1500 l 1
 1221 306 l 1
 1221 1500 l 1
985 1500 m 1
 1450 1500 l 1
 1450 1482 l 1
 985 1482 l 1
 985 1500 l 1
47 18 m 1
 506 18 l 1
 506 0 l 1
 47 0 l 1
 47 18 l 1
248 1482 m 1
 47 1482 l 1
 47 1500 l 1
 266 1500 l 1
 266 0 l 1
 248 0 l 1
 248 1482 l 1
EndSplineSet
EndChar

StartChar: O
Encoding: 79 79 26
GlifName: O_
Width: 1467
Flags: HMW
LayerCount: 2
Fore
SplineSet
734 -20 m 0
 328 -20 94 324 94 750 c 0
 94 1176 348 1520 734 1520 c 0
 1120 1520 1375 1176 1375 750 c 0
 1375 324 1140 -20 734 -20 c 0
734 1503 m 0
 406 1503 324 1114 324 750 c 0
 324 386 386 -3 734 -3 c 0
 1082 -3 1144 386 1144 750 c 0
 1144 1114 1062 1503 734 1503 c 0
EndSplineSet
EndChar

StartChar: P
Encoding: 80 80 27
GlifName: P_
Width: 1248
Flags: HMW
LayerCount: 2
Fore
SplineSet
227 1500 m 1
 417 1500 l 1
 417 0 l 1
 227 0 l 1
 227 1500 l 1
47 18 m 1
 597 18 l 1
 597 0 l 1
 47 0 l 1
 47 18 l 1
637 666 m 2
 377 666 l 1
 377 684 l 1
 637 684 l 2
 829 684 937 898 937 1076 c 0
 937 1254 829 1482 637 1482 c 2
 47 1482 l 1
 47 1500 l 1
 637 1500 l 2
 999 1500 1157 1336 1157 1076 c 0
 1157 816 999 666 637 666 c 2
EndSplineSet
EndChar

StartChar: Q
Encoding: 81 81 28
GlifName: Q_
Width: 1467
Flags: HMW
LayerCount: 2
Fore
SplineSet
734 -20 m 0
 328 -20 94 324 94 750 c 0
 94 1176 348 1520 734 1520 c 0
 1120 1520 1375 1176 1375 750 c 0
 1375 324 1140 -20 734 -20 c 0
734 1503 m 0
 406 1503 324 1114 324 750 c 0
 324 386 386 -3 734 -3 c 0
 1082 -3 1144 386 1144 750 c 0
 1144 1114 1062 1503 734 1503 c 0
1074 -482 m 1
 1074 -500 l 1
 648 -500 614 -349 614 -3 c 1
 693 -19 765 -19 844 -3 c 1
 844 -367 870 -482 1074 -482 c 1
EndSplineSet
EndChar

StartChar: R
Encoding: 82 82 29
GlifName: R_
Width: 1411
Flags: HMW
LayerCount: 2
Fore
SplineSet
707 762 m 2
 407 762 l 1
 407 774 l 1
 707 774 l 2
 899 774 1007 907 1007 1125 c 0
 1007 1343 899 1482 707 1482 c 2
 47 1482 l 1
 47 1500 l 1
 707 1500 l 2
 1009 1500 1207 1385 1207 1125 c 0
 1207 865 1029 762 707 762 c 2
47 18 m 1
 677 18 l 1
 677 0 l 1
 47 0 l 1
 47 18 l 1
267 1500 m 1
 457 1500 l 1
 457 0 l 1
 267 0 l 1
 267 1500 l 1
1377 22 m 1
 1345 4 1281 -10 1197 -10 c 0
 731 -10 1189 755 697 755 c 2
 407 755 l 1
 407 767 l 1
 737 767 l 2
 1415 767 1024 14 1265 14 c 0
 1307 14 1342 25 1370 38 c 1
 1377 22 l 1
EndSplineSet
Substitution2: "'ss01' Style Set 1 lookup 2-1" R.alt
EndChar

StartChar: S
Encoding: 83 83 30
GlifName: S_
Width: 1130
Flags: HMW
LayerCount: 2
Fore
SplineSet
981 1110 m 1
 963 1110 l 1
 923 1377 764 1498 559 1498 c 0
 367 1498 266 1396 266 1242 c 0
 266 872 1055 956 1055 400 c 0
 1055 140 877 -30 595 -30 c 0
 286 -30 146 150 98 390 c 1
 116 390 l 1
 161 160 298 -10 578 -10 c 0
 790 -10 930 105 930 314 c 0
 930 724 125 630 125 1150 c 0
 125 1370 314 1520 539 1520 c 0
 775 1520 941 1389 981 1110 c 1
965 1520 m 1
 981 1520 l 1
 981 1110 l 1
 957 1207 924 1303 859 1385 c 1
 965 1520 l 1
114 -20 m 1
 98 -20 l 1
 98 390 l 1
 135 273 164 203 219 128 c 1
 114 -20 l 1
EndSplineSet
EndChar

StartChar: T
Encoding: 84 84 31
GlifName: T_
Width: 1297
Flags: HMW
LayerCount: 2
Fore
SplineSet
334 18 m 1
 964 18 l 1
 964 0 l 1
 334 0 l 1
 334 18 l 1
554 1496 m 1
 744 1496 l 1
 744 0 l 1
 554 0 l 1
 554 1496 l 1
943 1482 m 2
 354 1482 l 2
 120 1482 65 1304 65 1050 c 1
 47 1050 l 1
 47 1500 l 1
 1250 1500 l 1
 1250 1050 l 1
 1232 1050 l 1
 1232 1304 1177 1482 943 1482 c 2
EndSplineSet
EndChar

StartChar: U
Encoding: 85 85 32
GlifName: U_
Width: 1416
Flags: HMW
LayerCount: 2
Fore
SplineSet
969 1500 m 1
 1368 1500 l 1
 1368 1482 l 1
 969 1482 l 1
 969 1500 l 1
44 1500 m 1
 614 1500 l 1
 614 1482 l 1
 44 1482 l 1
 44 1500 l 1
1155 1500 m 1
 1173 1500 l 1
 1173 460 l 2
 1173 130 1040 -30 724 -30 c 0
 378 -30 224 114 224 460 c 2
 224 1500 l 1
 414 1500 l 1
 414 480 l 2
 414 216 476 -4 764 -4 c 0
 1023 -4 1155 140 1155 460 c 2
 1155 1500 l 1
EndSplineSet
EndChar

StartChar: V
Encoding: 86 86 33
GlifName: V_
Width: 1502
Flags: HMW
LayerCount: 2
Fore
SplineSet
1456 1482 m 1
 1007 1482 l 1
 1007 1500 l 1
 1456 1500 l 1
 1456 1482 l 1
627 1482 m 1
 47 1482 l 1
 47 1500 l 1
 627 1500 l 1
 627 1482 l 1
815 240 m 1
 1268 1500 l 1
 1289 1500 l 1
 738 -30 l 1
 717 -30 l 1
 187 1500 l 1
 406 1500 l 1
 815 240 l 1
EndSplineSet
EndChar

StartChar: W
Encoding: 87 87 34
GlifName: W_
Width: 1966
Flags: HMW
LayerCount: 2
Fore
SplineSet
1058 948 m 1
 700 -20 l 1
 680 -20 l 1
 208 1500 l 1
 409 1500 l 1
 789 280 l 1
 1052 990 l 1
 1058 948 l 1
1098 948 m 1
 1083 964 l 1
 1261 1500 l 1
 1283 1498 l 1
 1098 948 l 1
1936 1482 m 1
 1540 1482 l 1
 1540 1500 l 1
 1936 1500 l 1
 1936 1482 l 1
940 1500 m 1
 1317 280 l 1
 1753 1500 l 1
 1774 1498 l 1
 1232 -20 l 5
 1212 -20 l 1
 740 1500 l 1
 940 1500 l 1
1440 1482 m 1
 31 1482 l 1
 31 1500 l 1
 1440 1500 l 1
 1440 1482 l 1
EndSplineSet
EndChar

StartChar: X
Encoding: 88 88 35
GlifName: X_
Width: 1488
Flags: HMW
LayerCount: 2
Fore
SplineSet
753 754 m 1
 729 754 l 1
 1166 1496 l 1
 1187 1496 l 1
 753 754 l 1
253 0 m 1
 230 0 l 1
 752 834 l 1
 775 834 l 1
 253 0 l 1
890 18 m 1
 1456 18 l 1
 1456 0 l 1
 890 0 l 1
 890 18 l 1
29 18 m 1
 505 18 l 1
 505 0 l 1
 29 0 l 1
 29 18 l 1
659 1482 m 1
 98 1482 l 1
 98 1500 l 1
 659 1500 l 1
 659 1482 l 1
1345 1482 m 1
 909 1482 l 1
 909 1500 l 1
 1345 1500 l 1
 1345 1482 l 1
1327 0 m 1
 1087 0 l 1
 218 1500 l 1
 451 1500 l 1
 1327 0 l 1
EndSplineSet
EndChar

StartChar: Y
Encoding: 89 89 36
GlifName: Y_
Width: 1432
Flags: HMW
LayerCount: 2
Fore
SplineSet
1399 1482 m 1
 984 1482 l 1
 984 1500 l 1
 1399 1500 l 1
 1399 1482 l 1
609 1482 m 1
 29 1482 l 1
 29 1500 l 1
 609 1500 l 1
 609 1482 l 1
458 18 m 1
 1029 18 l 1
 1029 0 l 1
 458 0 l 1
 458 18 l 1
817 782 m 1
 1219 1496 l 1
 1241 1496 l 1
 829 766 l 1
 829 0 l 1
 638 0 l 1
 638 720 l 1
 164 1500 l 1
 384 1500 l 1
 817 782 l 1
EndSplineSet
EndChar

StartChar: Z
Encoding: 90 90 37
GlifName: Z_
Width: 1119
Flags: HMW
LayerCount: 2
Fore
SplineSet
79 1500 m 1
 1037 1500 l 1
 1037 1482 l 1
 247 18 l 1
 687 18 l 2
 961 18 1035 126 1035 380 c 1
 1053 380 l 1
 1053 0 l 1
 37 0 l 1
 37 18 l 1
 827 1482 l 1
 446 1482 l 2
 172 1482 98 1374 98 1160 c 1
 79 1160 l 1
 79 1500 l 1
EndSplineSet
EndChar

StartChar: a
Encoding: 97 97 38
GlifName: a
Width: 1081
VWidth: 2309
Flags: HMW
LayerCount: 2
Fore
SplineSet
1056 109 m 1
 1012 25 934 -20 850 -20 c 0
 756 -20 669 15 669 149 c 2
 669 610 l 2
 669 746 652 913 492 913 c 0
 379 913 282 870 240 827 c 1
 339 857 394 796 394 736 c 0
 394 656 328 622 277 622 c 0
 217 622 172 660 172 732 c 0
 172 856 348 936 530 936 c 0
 825 936 848 772 848 610 c 2
 848 94 l 2
 848 46 868 18 915 18 c 0
 948 18 1007 52 1042 119 c 1
 1056 109 l 1
542 509 m 2
 772 509 l 1
 772 491 l 1
 542 491 l 2
 385 491 303 371 303 235 c 0
 303 109 352 19 445 19 c 0
 562 19 669 118 669 364 c 1
 686 364 l 1
 686 120 593 -20 375 -20 c 0
 214 -20 102 77 102 226 c 0
 102 396 242 509 542 509 c 2
EndSplineSet
EndChar

StartChar: b
Encoding: 98 98 39
GlifName: b
Width: 1203
VWidth: 2309
Flags: HMW
LayerCount: 2
Fore
SplineSet
354 460 m 0
 354 750 478 938 685 938 c 0
 900 938 1106 760 1106 460 c 0
 1106 160 900 -20 685 -20 c 0
 478 -20 354 170 354 460 c 0
372 460 m 0
 372 168 502 10 655 10 c 0
 818 10 898 192 898 460 c 0
 898 728 818 908 655 908 c 0
 502 908 372 752 372 460 c 0
192 1482 m 1
 68 1482 l 1
 68 1500 l 1
 372 1500 l 1
 372 0 l 1
 68 0 l 1
 68 18 l 1
 192 18 l 1
 192 1482 l 1
EndSplineSet
EndChar

StartChar: c
Encoding: 99 99 40
GlifName: c
Width: 1016
VWidth: 2309
Flags: HMW
LayerCount: 2
Fore
SplineSet
868 741 m 1
 839 850 720 919 584 919 c 0
 349 919 308 648 308 460 c 0
 308 232 355 4 568 4 c 0
 742 4 841 118 895 276 c 1
 914 276 l 1
 862 107 756 -20 554 -20 c 0
 292 -20 98 160 98 460 c 0
 98 720 263 940 565 940 c 0
 769 940 897 825 897 690 c 0
 897 610 844 568 784 568 c 0
 734 568 669 600 669 680 c 0
 669 747 723 785 776 785 c 0
 819 785 860 761 868 741 c 1
EndSplineSet
EndChar

StartChar: d
Encoding: 100 100 41
GlifName: d
Width: 1203
VWidth: 2309
Flags: HMW
LayerCount: 2
Fore
SplineSet
850 459 m 0
 850 169 727 -18 520 -18 c 0
 305 -18 98 159 98 459 c 0
 98 759 305 940 520 940 c 0
 727 940 850 749 850 459 c 0
832 459 m 0
 832 751 702 909 549 909 c 0
 386 909 306 727 306 459 c 0
 306 191 386 12 549 12 c 0
 702 12 832 167 832 459 c 0
1137 18 m 1
 1137 0 l 1
 832 0 l 1
 832 1482 l 1
 708 1482 l 1
 708 1500 l 1
 1012 1500 l 1
 1012 18 l 1
 1137 18 l 1
EndSplineSet
EndChar

StartChar: e
Encoding: 101 101 42
GlifName: e
Width: 1051
VWidth: 2309
Flags: HMW
LayerCount: 2
Fore
SplineSet
232 522 m 1
 232 542 l 1
 745 542 l 1
 746 689 725 921 551 921 c 0
 356 921 306 688 306 460 c 0
 306 232 358 1 572 1 c 0
 768 1 894 121 944 276 c 1
 964 276 l 1
 912 107 779 -20 559 -20 c 0
 300 -20 98 160 98 460 c 0
 98 760 291 940 551 940 c 0
 846 940 957 740 957 522 c 1
 232 522 l 1
EndSplineSet
EndChar

StartChar: f
Encoding: 102 102 43
GlifName: f
Width: 762
VWidth: 2309
Flags: HMW
LayerCount: 2
Fore
SplineSet
58 18 m 1
 626 18 l 1
 626 0 l 1
 58 0 l 1
 58 18 l 1
58 920 m 1
 666 920 l 1
 666 902 l 1
 58 902 l 1
 58 920 l 1
837 1360 m 1
 820 1426 750 1501 616 1501 c 0
 456 1501 402 1334 402 1080 c 2
 402 0 l 1
 222 0 l 1
 222 1024 l 2
 222 1286 356 1520 616 1520 c 0
 778 1520 862 1416 862 1322 c 0
 862 1240 808 1198 748 1198 c 0
 698 1198 635 1232 635 1309 c 0
 635 1384 691 1417 746 1417 c 0
 786 1417 819 1397 837 1360 c 1
EndSplineSet
EndChar

StartChar: g
Encoding: 103 103 44
GlifName: g
Width: 1172
VWidth: 2309
Flags: HMW
LayerCount: 2
Fore
SplineSet
131 148 m 0
 131 296 326 348 485 348 c 1
 485 334 l 1
 399 334 269 296 269 212 c 0
 269 139 351 138 461 138 c 0
 531 138 560 140 616 140 c 0
 766 140 938 108 938 -164 c 0
 938 -411 726 -520 503 -520 c 0
 273 -520 68 -440 68 -250 c 0
 68 -68 264 -12 354 -12 c 2
 365 -12 l 1
 275 -59 254 -137 254 -209 c 0
 254 -343 332 -499 526 -499 c 0
 727 -499 897 -389 897 -209 c 0
 897 -69 760 -18 630 -18 c 0
 588 -18 474 -18 430 -18 c 0
 250 -18 131 24 131 148 c 0
306 630 m 0
 306 482 318 349 476 349 c 0
 594 349 646 482 646 630 c 0
 646 778 594 921 476 921 c 0
 358 921 306 778 306 630 c 0
118 630 m 0
 118 850 314 940 476 940 c 0
 638 940 832 850 832 630 c 0
 832 410 638 331 476 331 c 0
 314 331 118 410 118 630 c 0
1094 812 m 1
 1086 865 1038 912 955 912 c 0
 875 912 758 860 718 689 c 1
 702 697 l 1
 742 876 875 930 955 930 c 0
 1056 930 1117 862 1117 786 c 0
 1117 697 1064 668 1014 668 c 0
 964 668 914 702 914 768 c 0
 914 822 959 858 1010 858 c 0
 1047 858 1083 841 1094 812 c 1
EndSplineSet
EndChar

StartChar: h
Encoding: 104 104 45
GlifName: h
Width: 1171
VWidth: 2309
Flags: HMW
LayerCount: 2
Fore
SplineSet
801 613 m 2
 801 781 785 916 674 916 c 0
 431 916 372 619 372 447 c 1
 358 441 l 1
 358 626 403 940 698 940 c 0
 930 940 980 812 980 638 c 2
 980 0 l 1
 801 0 l 1
 801 613 l 2
678 18 m 1
 1104 18 l 1
 1104 0 l 1
 678 0 l 1
 678 18 l 1
68 18 m 1
 496 18 l 1
 496 0 l 1
 68 0 l 1
 68 18 l 1
192 1482 m 1
 68 1482 l 1
 68 1500 l 1
 372 1500 l 1
 372 0 l 1
 192 0 l 1
 192 1482 l 1
EndSplineSet
EndChar

StartChar: i
Encoding: 105 105 46
GlifName: i
Width: 583
VWidth: 2309
Flags: HMW
LayerCount: 2
Fore
SplineSet
78 18 m 1
 506 18 l 1
 506 0 l 1
 78 0 l 1
 78 18 l 1
152 1400 m 0
 152 1466 206 1520 272 1520 c 0
 338 1520 392 1466 392 1400 c 0
 392 1334 338 1280 272 1280 c 0
 206 1280 152 1334 152 1400 c 0
202 902 m 1
 78 902 l 1
 78 920 l 1
 381 920 l 1
 381 0 l 1
 202 0 l 1
 202 902 l 1
EndSplineSet
EndChar

StartChar: j
Encoding: 106 106 47
GlifName: j
Width: 592
VWidth: 2309
Flags: HMW
LayerCount: 2
Fore
SplineSet
186 1400 m 0
 186 1466 240 1520 306 1520 c 0
 372 1520 425 1466 425 1400 c 0
 425 1334 372 1280 306 1280 c 0
 240 1280 186 1334 186 1400 c 0
412 920 m 1
 412 -24 l 2
 412 -286 358 -520 98 -520 c 0
 -64 -520 -148 -416 -148 -302 c 0
 -148 -220 -95 -178 -35 -178 c 0
 15 -178 78 -206 78 -286 c 0
 78 -360 27 -397 -41 -397 c 0
 -74 -397 -114 -371 -124 -343 c 1
 -115 -420 -37 -501 87 -501 c 0
 267 -501 232 -214 232 40 c 2
 232 902 l 1
 68 902 l 1
 68 920 l 1
 412 920 l 1
EndSplineSet
EndChar

StartChar: k
Encoding: 107 107 48
GlifName: k
Width: 1191
VWidth: 2309
Flags: HMW
LayerCount: 2
Fore
SplineSet
1068 0 m 1
 845 0 l 1
 398 524 l 1
 900 920 l 1
 925 920 l 1
 544 616 l 1
 1068 0 l 1
686 18 m 1
 1144 18 l 1
 1144 0 l 1
 686 0 l 1
 686 18 l 1
1076 902 m 1
 662 902 l 1
 662 920 l 1
 1076 920 l 1
 1076 902 l 1
68 18 m 1
 551 18 l 1
 551 0 l 1
 68 0 l 1
 68 18 l 1
232 1482 m 1
 68 1482 l 1
 68 1500 l 1
 412 1500 l 1
 412 0 l 1
 232 0 l 1
 232 1482 l 1
EndSplineSet
EndChar

StartChar: l
Encoding: 108 108 49
GlifName: l
Width: 643
VWidth: 2309
Flags: HMW
LayerCount: 2
Fore
SplineSet
68 18 m 1
 576 18 l 1
 576 0 l 1
 68 0 l 1
 68 18 l 1
232 1482 m 1
 68 1482 l 1
 68 1500 l 1
 412 1500 l 1
 412 0 l 1
 232 0 l 1
 232 1482 l 1
EndSplineSet
EndChar

StartChar: m
Encoding: 109 109 50
GlifName: m
Width: 1701
VWidth: 2309
Flags: HMW
LayerCount: 2
Fore
SplineSet
940 638 m 2
 940 0 l 1
 762 0 l 1
 762 616 l 2
 762 784 758 915 649 915 c 0
 433 915 370 620 370 450 c 1
 356 444 l 1
 356 629 404 940 675 940 c 0
 881 940 940 812 940 638 c 2
68 18 m 1
 494 18 l 1
 494 0 l 1
 68 0 l 1
 68 18 l 1
638 18 m 1
 1064 18 l 1
 1064 0 l 1
 638 0 l 1
 638 18 l 1
1208 18 m 1
 1634 18 l 1
 1634 0 l 1
 1208 0 l 1
 1208 18 l 1
192 902 m 1
 68 902 l 1
 68 920 l 1
 370 920 l 1
 370 0 l 1
 192 0 l 1
 192 902 l 1
1510 638 m 2
 1510 0 l 1
 1332 0 l 1
 1332 616 l 2
 1332 784 1324 915 1215 915 c 0
 997 915 940 620 940 450 c 1
 925 444 l 1
 925 629 969 940 1241 940 c 0
 1447 940 1510 812 1510 638 c 2
EndSplineSet
EndChar

StartChar: n
Encoding: 110 110 51
GlifName: n
Width: 1171
VWidth: 2309
Flags: HMW
LayerCount: 2
Fore
SplineSet
801 613 m 2
 801 781 785 916 674 916 c 0
 431 916 372 619 372 447 c 1
 358 441 l 1
 358 626 403 940 698 940 c 0
 930 940 980 812 980 638 c 2
 980 0 l 1
 801 0 l 1
 801 613 l 2
678 18 m 1
 1104 18 l 1
 1104 0 l 1
 678 0 l 1
 678 18 l 1
68 18 m 1
 496 18 l 1
 496 0 l 1
 68 0 l 1
 68 18 l 1
192 902 m 1
 68 902 l 1
 68 920 l 1
 372 920 l 1
 372 0 l 1
 192 0 l 1
 192 902 l 1
EndSplineSet
EndChar

StartChar: o
Encoding: 111 111 52
GlifName: o
Width: 1111
VWidth: 2309
Flags: HMW
LayerCount: 2
Fore
SplineSet
306 460 m 0
 306 272 339 -1 556 -1 c 0
 773 -1 806 272 806 460 c 0
 806 648 773 921 556 921 c 0
 339 921 306 648 306 460 c 0
98 460 m 0
 98 720 274 940 556 940 c 0
 838 940 1014 720 1014 460 c 0
 1014 200 838 -20 556 -20 c 0
 274 -20 98 200 98 460 c 0
EndSplineSet
EndChar

StartChar: p
Encoding: 112 112 53
GlifName: p
Width: 1203
VWidth: 2309
Flags: HMW
LayerCount: 2
Fore
SplineSet
354 460 m 0
 354 750 477 938 684 938 c 0
 899 938 1106 760 1106 460 c 0
 1106 160 899 -20 684 -20 c 0
 477 -20 354 170 354 460 c 0
372 460 m 0
 372 168 502 10 655 10 c 0
 818 10 898 192 898 460 c 0
 898 728 818 908 655 908 c 0
 502 908 372 752 372 460 c 0
68 -482 m 1
 496 -482 l 1
 496 -500 l 1
 68 -500 l 1
 68 -482 l 1
192 902 m 1
 68 902 l 1
 68 920 l 1
 372 920 l 1
 372 -500 l 1
 192 -500 l 1
 192 902 l 1
EndSplineSet
EndChar

StartChar: q
Encoding: 113 113 54
GlifName: q
Width: 1203
VWidth: 2309
Flags: HMW
LayerCount: 2
Fore
SplineSet
850 459 m 0
 850 169 727 -18 520 -18 c 0
 305 -18 98 159 98 459 c 0
 98 759 305 940 520 940 c 0
 727 940 850 749 850 459 c 0
832 459 m 0
 832 751 702 909 549 909 c 0
 386 909 306 727 306 459 c 0
 306 191 386 12 549 12 c 0
 702 12 832 167 832 459 c 0
1137 -482 m 1
 1137 -500 l 1
 708 -500 l 1
 708 -482 l 1
 1137 -482 l 1
1137 920 m 1
 1137 902 l 1
 1012 902 l 1
 1012 -500 l 1
 832 -500 l 1
 832 920 l 1
 1137 920 l 1
EndSplineSet
EndChar

StartChar: r
Encoding: 114 114 55
GlifName: r
Width: 861
VWidth: 2309
Flags: HMW
LayerCount: 2
Fore
SplineSet
777 843 m 5
 751 895 688 921 631 921 c 0
 432 921 370 665 370 439 c 1
 354 439 l 1
 354 678 414 940 631 940 c 0
 727 940 812 875 812 783 c 0
 812 715 770 661 696 661 c 0
 630 661 579 698 579 769 c 0
 579 867 709 915 777 843 c 5
68 18 m 1
 499 18 l 1
 499 0 l 1
 68 0 l 1
 68 18 l 1
192 902 m 1
 68 902 l 1
 68 920 l 1
 370 920 l 1
 370 0 l 1
 192 0 l 1
 192 902 l 1
EndSplineSet
EndChar

StartChar: s
Encoding: 115 115 56
GlifName: s
Width: 884
VWidth: 2309
Flags: HMW
LayerCount: 2
Fore
SplineSet
695 762 m 1
 678 793 655 820 628 846 c 1
 718 940 l 1
 735 940 l 1
 735 660 l 1
 719 660 l 1
 717 695 710 728 695 762 c 1
732 660 m 1
 716 660 l 1
 712 785 583 918 404 918 c 0
 296 918 211 866 211 773 c 0
 211 541 794 628 794 281 c 0
 794 103 648 -20 457 -20 c 0
 271 -20 112 109 102 265 c 1
 118 265 l 1
 129 119 281 0 445 0 c 0
 562 0 680 50 680 182 c 0
 680 435 125 310 125 673 c 0
 125 801 212 938 402 938 c 0
 595 938 732 792 732 660 c 1
116 -20 m 1
 100 -20 l 1
 100 265 l 1
 117 265 l 1
 117 218 131 180 146 156 c 1
 173 119 188 97 209 77 c 1
 116 -20 l 1
EndSplineSet
EndChar

StartChar: t
Encoding: 116 116 57
GlifName: t
Width: 675
VWidth: 2309
Flags: HMW
LayerCount: 2
Fore
SplineSet
47 920 m 1
 583 920 l 1
 583 902 l 1
 47 902 l 1
 47 920 l 1
642 189 m 1
 592 69 499 -14 375 -14 c 0
 211 -14 189 112 189 222 c 2
 189 1120 l 1
 249 1120 329 1150 369 1180 c 1
 369 157 l 2
 369 57 391 31 446 31 c 0
 517 31 588 112 626 198 c 1
 642 189 l 1
EndSplineSet
EndChar

StartChar: u
Encoding: 117 117 58
GlifName: u
Width: 1173
VWidth: 2309
Flags: HMW
LayerCount: 2
Fore
SplineSet
372 920 m 1
 372 307 l 2
 372 139 387 4 498 4 c 0
 741 4 801 301 801 473 c 1
 815 479 l 1
 815 294 770 -20 475 -20 c 0
 243 -20 192 108 192 282 c 2
 192 902 l 1
 68 902 l 1
 68 920 l 1
 372 920 l 1
982 18 m 1
 1106 18 l 1
 1106 0 l 1
 801 0 l 1
 801 902 l 1
 662 902 l 1
 662 920 l 1
 982 920 l 1
 982 18 l 1
EndSplineSet
EndChar

StartChar: v
Encoding: 118 118 59
GlifName: v
Width: 1097
VWidth: 2309
Flags: HMW
LayerCount: 2
Fore
SplineSet
1054 902 m 1
 708 902 l 1
 708 920 l 1
 1054 920 l 1
 1054 902 l 1
509 902 m 1
 28 902 l 1
 28 920 l 1
 509 920 l 1
 509 902 l 1
607 205 m 1
 902 920 l 1
 924 920 l 1
 538 -20 l 1
 518 -20 l 1
 132 920 l 1
 332 920 l 1
 607 205 l 1
EndSplineSet
EndChar

StartChar: w
Encoding: 119 119 60
GlifName: w
Width: 1531
VWidth: 2309
Flags: HMW
LayerCount: 2
Fore
SplineSet
479 902 m 1
 28 902 l 1
 28 920 l 1
 479 920 l 1
 479 902 l 1
1489 902 m 1
 1111 902 l 1
 1111 920 l 1
 1489 920 l 1
 1489 902 l 1
536 218 m 1
 845 940 l 1
 865 940 l 1
 1083 253 l 1
 1306 920 l 1
 1327 920 l 1
 1013 -20 l 1
 995 -20 l 1
 752 674 l 1
 454 -20 l 1
 435 -20 l 1
 134 920 l 1
 316 920 l 1
 536 218 l 1
EndSplineSet
EndChar

StartChar: x
Encoding: 120 120 61
GlifName: x
Width: 1131
VWidth: 2309
Flags: HMW
LayerCount: 2
Fore
SplineSet
670 18 m 1
 1084 18 l 1
 1084 0 l 1
 670 0 l 1
 670 18 l 1
47 18 m 1
 398 18 l 1
 398 0 l 1
 47 0 l 1
 47 18 l 1
528 902 m 1
 68 902 l 1
 68 920 l 1
 528 920 l 1
 528 902 l 1
1054 902 m 1
 714 902 l 1
 714 920 l 1
 1054 920 l 1
 1054 902 l 1
1009 0 m 1
 792 0 l 1
 162 920 l 1
 380 920 l 1
 1009 0 l 1
188 0 m 1
 165 0 l 1
 894 920 l 1
 917 920 l 1
 188 0 l 1
EndSplineSet
EndChar

StartChar: y
Encoding: 121 121 62
GlifName: y
Width: 1099
VWidth: 2309
Flags: HMW
LayerCount: 2
Fore
SplineSet
473 902 m 1
 28 902 l 1
 28 920 l 1
 473 920 l 1
 473 902 l 1
1092 902 m 1
 780 902 l 1
 780 920 l 1
 1092 920 l 1
 1092 902 l 1
665 188 m 1
 570 -41 l 1
 110 920 l 1
 310 920 l 1
 665 188 l 1
402 -414 m 1
 953 920 l 1
 975 920 l 1
 432 -396 l 2
 396 -479 365 -528 289 -528 c 0
 239 -528 177 -496 177 -420 c 0
 177 -354 223 -308 287 -308 c 0
 345 -308 391 -350 402 -414 c 1
EndSplineSet
EndChar

StartChar: z
Encoding: 122 122 63
GlifName: z
Width: 930
VWidth: 2309
Flags: HMW
LayerCount: 2
Fore
SplineSet
417 902 m 2
 189 902 132 778 132 576 c 1
 114 576 l 1
 114 920 l 1
 831 920 l 1
 831 902 l 1
 271 18 l 1
 514 18 l 2
 788 18 845 120 845 368 c 1
 863 368 l 1
 863 0 l 1
 58 0 l 1
 58 18 l 1
 616 902 l 1
 417 902 l 2
EndSplineSet
EndChar

StartChar: comma
Encoding: 44 44 65
GlifName: comma
Width: 429
Flags: HMW
LayerCount: 2
Fore
SplineSet
80 98 m 0
 80 164 138 216 214 216 c 0
 292 216 354 154 354 8 c 0
 354 -132 256 -297 76 -297 c 1
 76 -280 l 1
 240 -280 366 -118 330 83 c 5
 317 28 268 -20 202 -20 c 0
 120 -20 80 32 80 98 c 0
EndSplineSet
EndChar

StartChar: exclam
Encoding: 33 33 67
GlifName: exclam
Width: 632
Flags: HMW
LayerCount: 2
Fore
SplineSet
432 1318 m 0
 410 966 324 716 324 416 c 1
 306 416 l 1
 306 716 218 966 196 1318 c 0
 196 1332 196 1344 196 1356 c 0
 196 1448 220 1516 314 1516 c 0
 408 1516 435 1448 435 1356 c 0
 435 1344 432 1332 432 1318 c 0
EndSplineSet
Refer: 1 46 N 1 0 0 1 116 0 2
EndChar

StartChar: quotesingle
Encoding: 39 39 70
GlifName: quotesingle
Width: 399
Flags: HMW
LayerCount: 2
Fore
SplineSet
298 1362 m 24
 276 1212 209 1196 209 976 c 1
 191 976 l 1
 191 1196 124 1212 102 1362 c 24
 100 1376 100 1386 100 1398 c 0
 100 1476 142 1520 200 1520 c 0
 258 1520 300 1476 300 1398 c 0
 300 1386 300 1376 298 1362 c 24
EndSplineSet
EndChar

StartChar: question
Encoding: 63 63 75
GlifName: question
Width: 1099
Flags: HMW
LayerCount: 2
Fore
SplineSet
485 700 m 1
 699 746 798 934 798 1120 c 0
 798 1308 759 1500 521 1500 c 0
 307 1500 160 1335 144 1229 c 1
 155 1251 186 1280 236 1280 c 0
 294 1280 348 1240 348 1170 c 0
 348 1090 284 1058 234 1058 c 0
 174 1058 120 1100 120 1182 c 0
 120 1346 308 1520 532 1520 c 0
 814 1520 1000 1360 1000 1120 c 0
 1000 890 785 707 503 689 c 1
 503 418 l 1
 485 418 l 1
 485 700 l 1
EndSplineSet
Refer: 1 46 N 1 0 0 1 298 0 2
EndChar

StartChar: parenleft
Encoding: 40 40 76
GlifName: parenleft
Width: 723
Flags: HMW
LayerCount: 2
Fore
SplineSet
695 -326 m 1
 686 -340 l 1
 360 -200 130 184 130 650 c 0
 130 1116 360 1460 686 1600 c 1
 695 1585 l 1
 447 1425 320 1034 320 650 c 0
 320 266 447 -166 695 -326 c 1
EndSplineSet
EndChar

StartChar: at
Encoding: 64 64 79
GlifName: at
Width: 2019
VWidth: 2309
Flags: HMW
LayerCount: 2
Fore
SplineSet
1240 700 m 0
 1240 400 1068 140 868 140 c 0
 710 140 568 252 568 460 c 0
 568 760 798 1058 1036 1058 c 0
 1198 1058 1240 864 1240 700 c 0
1226 692 m 0
 1226 776 1212 1031 1056 1031 c 0
 908 1031 770 704 770 456 c 0
 770 322 800 167 904 167 c 0
 1059 167 1226 424 1226 692 c 0
1180 420 m 2
 1324 1040 l 1
 1504 1040 l 1
 1360 420 l 2
 1354 394 1264 162 1418 162 c 0
 1695 162 1892 488 1892 802 c 0
 1892 1161 1667 1562 1169 1562 c 0
 597 1562 128 1038 128 422 c 0
 128 -191 482 -410 838 -410 c 0
 1164 -410 1384 -310 1556 -115 c 1
 1570 -128 l 1
 1402 -324 1164 -428 838 -428 c 0
 472 -428 110 -206 110 422 c 0
 110 1048 584 1580 1170 1580 c 0
 1676 1580 1910 1168 1910 802 c 0
 1910 482 1724 136 1382 136 c 0
 1204 136 1152 296 1180 420 c 2
EndSplineSet
EndChar

StartChar: dollar
Encoding: 36 36 80
GlifName: dollar
Width: 1109
Flags: HMW
LayerCount: 2
Fore
SplineSet
628 1660 m 1
 646 1660 l 1
 646 -160 l 1
 628 -160 l 1
 628 1660 l 1
451 1660 m 1
 470 1660 l 1
 470 -160 l 1
 451 -160 l 1
 451 1660 l 1
970 1236 m 1
 956 1372 806 1502 591 1502 c 0
 379 1502 260 1368 260 1210 c 0
 260 840 1030 960 1030 420 c 0
 1030 140 836 -30 554 -30 c 0
 206 -30 60 160 60 290 c 0
 60 382 112 454 200 454 c 0
 260 454 328 410 328 322 c 0
 328 242 262 192 194 192 c 0
 147 192 104 222 84 249 c 1
 106 149 235 -14 552 -14 c 0
 764 -14 890 132 890 330 c 0
 890 740 120 610 120 1130 c 0
 120 1370 348 1520 590 1520 c 0
 822 1520 990 1372 990 1210 c 0
 990 1118 938 1046 850 1046 c 0
 790 1046 722 1090 722 1178 c 0
 722 1258 788 1308 856 1308 c 0
 906 1308 955 1273 970 1236 c 1
EndSplineSet
EndChar

StartChar: numbersign
Encoding: 35 35 81
GlifName: numbersign
Width: 1266
Flags: HMW
LayerCount: 2
Fore
SplineSet
60 510 m 1
 1146 510 l 1
 1146 491 l 1
 60 491 l 1
 60 510 l 1
120 1039 m 1
 1207 1039 l 1
 1207 1021 l 1
 120 1021 l 1
 120 1039 l 1
905 1508 m 1
 923 1510 l 1
 723 -10 l 1
 705 -12 l 1
 905 1508 l 1
524 1510 m 1
 542 1510 l 1
 342 -10 l 1
 324 -10 l 1
 524 1510 l 1
EndSplineSet
EndChar

StartChar: slash
Encoding: 47 47 82
GlifName: slash
Width: 1045
Flags: HMW
LayerCount: 2
Fore
SplineSet
949 1560 m 1
 967 1560 l 1
 98 -300 l 1
 80 -300 l 1
 949 1560 l 1
EndSplineSet
EndChar

StartChar: percent
Encoding: 37 37 83
GlifName: percent
Width: 2000
Flags: HMW
LayerCount: 2
Fore
SplineSet
1350 420 m 0
 1350 216 1382 -1 1530 -1 c 0
 1678 -1 1710 216 1710 420 c 0
 1710 624 1678 842 1530 842 c 0
 1382 842 1350 624 1350 420 c 0
1130 420 m 0
 1130 706 1304 860 1530 860 c 0
 1756 860 1930 706 1930 420 c 0
 1930 134 1716 -20 1530 -20 c 0
 1304 -20 1130 134 1130 420 c 0
1512 1500 m 1
 1534 1500 l 1
 488 0 l 1
 466 0 l 1
 1512 1500 l 1
290 1080 m 0
 290 876 322 658 470 658 c 0
 618 658 650 876 650 1080 c 0
 650 1284 618 1501 470 1501 c 0
 322 1501 290 1284 290 1080 c 0
70 1080 m 0
 70 1366 244 1520 470 1520 c 0
 696 1520 870 1366 870 1080 c 0
 870 794 656 640 470 640 c 0
 244 640 70 794 70 1080 c 0
EndSplineSet
EndChar

StartChar: hyphen
Encoding: 45 45 85
GlifName: hyphen
Width: 719
Flags: HMW
LayerCount: 2
Fore
SplineSet
120 559 m 1
 600 559 l 1
 600 541 l 1
 120 541 l 1
 120 559 l 1
EndSplineSet
EndChar

StartChar: plus
Encoding: 43 43 87
GlifName: plus
Width: 1059
Flags: HMW
LayerCount: 2
Fore
SplineSet
521 220 m 1
 521 1040 l 1
 540 1040 l 1
 540 220 l 1
 521 220 l 1
120 641 m 1
 940 641 l 1
 940 623 l 1
 120 623 l 1
 120 641 l 1
EndSplineSet
EndChar

StartChar: less
Encoding: 60 60 89
GlifName: less
Width: 1119
Flags: HMW
LayerCount: 2
Fore
SplineSet
120 769 m 1
 120 788 l 1
 1000 1205 l 1
 1000 1186 l 1
 120 769 l 1
120 763 m 1
 120 782 l 1
 1000 364 l 1
 1000 345 l 1
 120 763 l 1
EndSplineSet
EndChar

StartChar: backslash
Encoding: 92 92 91
GlifName: backslash
Width: 1045
Flags: HMW
LayerCount: 2
Fore
SplineSet
100 1560 m 1
 967 -300 l 1
 947 -300 l 1
 80 1560 l 1
 100 1560 l 1
EndSplineSet
EndChar

StartChar: bracketleft
Encoding: 91 91 92
GlifName: bracketleft
Width: 649
Flags: HMW
LayerCount: 2
Fore
SplineSet
590 -300 m 1
 110 -300 l 1
 110 -282 l 1
 590 -282 l 1
 590 -300 l 1
590 1542 m 1
 110 1542 l 1
 110 1560 l 1
 590 1560 l 1
 590 1542 l 1
290 1560 m 1
 290 -300 l 1
 110 -300 l 1
 110 1560 l 1
 290 1560 l 1
EndSplineSet
EndChar

StartChar: braceleft
Encoding: 123 123 93
GlifName: braceleft
Width: 543
VWidth: 2309
Flags: HMW
LayerCount: 2
Fore
SplineSet
484 1560 m 1
 484 1542 l 1
 360 1542 296 1420 296 1294 c 0
 296 1142 364 1062 364 862 c 0
 364 696 258 668 110 628 c 1
 110 640 l 1
 170 660 230 710 230 792 c 0
 230 918 110 1008 110 1282 c 0
 110 1460 194 1560 484 1560 c 1
484 -300 m 1
 194 -300 110 -198 110 -20 c 0
 110 254 230 344 230 470 c 0
 230 552 170 601 110 621 c 1
 110 634 l 1
 258 594 364 566 364 400 c 0
 364 200 296 120 296 -32 c 0
 296 -158 360 -282 484 -282 c 1
 484 -300 l 1
EndSplineSet
EndChar

StartChar: bar
Encoding: 124 124 96
GlifName: bar
Width: 466
VWidth: 2309
Flags: HMW
LayerCount: 2
Fore
SplineSet
224 1560 m 1
 243 1560 l 1
 243 -500 l 1
 224 -500 l 1
 224 1560 l 1
EndSplineSet
EndChar

StartChar: cent
Encoding: 162 162 98
GlifName: cent
Width: 1016
VWidth: 2309
Flags: HMW
LayerCount: 2
Fore
SplineSet
560 1110 m 1
 560 -170 l 1
 542 -170 l 1
 542 1110 l 1
 560 1110 l 1
EndSplineSet
Refer: 40 99 N 1 0 0 1 0 0 2
EndChar

StartChar: sterling
Encoding: 163 163 99
GlifName: sterling
Width: 1250
VWidth: 2309
Flags: HMW
LayerCount: 2
Fore
SplineSet
1204 314 m 1
 1204 24 1042 -60 864 -60 c 0
 590 -60 500 60 374 60 c 0
 292 60 184 20 164 -40 c 1
 153 -40 l 1
 193 108 278 194 444 194 c 0
 644 194 724 126 876 126 c 0
 1002 126 1186 150 1186 314 c 1
 1204 314 l 1
930 810 m 1
 930 792 l 1
 30 792 l 1
 30 810 l 1
 930 810 l 1
236 1100 m 0
 236 1380 446 1520 768 1520 c 0
 1092 1520 1224 1356 1224 1192 c 0
 1224 1110 1166 1068 1106 1068 c 0
 1056 1068 992 1100 992 1180 c 0
 992 1250 1048 1290 1106 1290 c 0
 1152 1290 1183 1256 1193 1240 c 1
 1193 1346 1073 1501 784 1501 c 0
 506 1501 458 1268 458 1120 c 0
 458 922 570 790 570 640 c 0
 570 280 137 270 163 -40 c 1
 144 -40 l 1
 106 238 398 394 398 522 c 0
 398 750 236 870 236 1100 c 0
EndSplineSet
EndChar

StartChar: section
Encoding: 167 167 101
GlifName: section
Width: 893
VWidth: 2309
Flags: HMW
LayerCount: 2
Fore
SplineSet
213 1294 m 0
 213 1062 834 1076 834 770 c 0
 834 646 713 583 605 511 c 1
 599 522 l 1
 661 566 688 603 688 663 c 0
 688 925 124 852 124 1216 c 0
 124 1424 304 1520 454 1520 c 0
 630 1520 802 1436 802 1224 c 0
 802 1142 752 1080 682 1080 c 0
 622 1080 574 1120 574 1192 c 0
 574 1256 630 1302 688 1302 c 0
 725 1302 766 1275 777 1253 c 1
 770 1418 624 1501 454 1501 c 0
 319 1501 213 1414 213 1294 c 0
818 324 m 0
 818 116 658 -20 428 -20 c 0
 252 -20 60 50 60 282 c 0
 60 364 110 426 180 426 c 0
 240 426 288 386 288 314 c 0
 288 250 232 204 174 204 c 0
 137 204 96 231 85 253 c 1
 97 67 267 -1 428 -1 c 0
 634 -1 702 128 702 222 c 0
 702 454 76 424 76 710 c 0
 76 854 194 948 262 1000 c 1
 285 1000 l 1
 257 976 230 934 230 854 c 0
 230 592 818 688 818 324 c 0
EndSplineSet
EndChar

StartChar: asciitilde
Encoding: 126 126 104
GlifName: asciitilde
Width: 1375
VWidth: 2309
Flags: HMW
LayerCount: 2
Fore
SplineSet
433 874 m 0
 327 874 218 830 218 686 c 1
 200 686 l 1
 200 916 340 1020 498 1020 c 0
 718 1020 731 832 923 832 c 0
 1049 832 1158 876 1158 1020 c 1
 1176 1020 l 1
 1176 790 1036 686 878 686 c 0
 624 686 639 874 433 874 c 0
EndSplineSet
EndChar

StartChar: copyright
Encoding: 169 169 105
GlifName: copyright
Width: 1739
Flags: HMW
LayerCount: 2
Fore
SplineSet
100 750 m 0
 100 1176 444 1520 870 1520 c 0
 1296 1520 1640 1176 1640 750 c 0
 1640 324 1296 -20 870 -20 c 0
 444 -20 100 324 100 750 c 0
118 750 m 0
 118 335 455 -1 870 -1 c 0
 1285 -1 1622 335 1622 750 c 0
 1622 1165 1285 1501 870 1501 c 0
 455 1501 118 1165 118 750 c 0
EndSplineSet
Refer: 14 67 N 0.6 0 0 0.6 415 300 2
EndChar

StartChar: registered
Encoding: 174 174 106
GlifName: registered
Width: 1739
Flags: HMW
LayerCount: 2
Fore
SplineSet
100 750 m 0
 100 1176 444 1520 870 1520 c 0
 1296 1520 1640 1176 1640 750 c 0
 1640 324 1296 -20 870 -20 c 0
 444 -20 100 324 100 750 c 0
118 750 m 0
 118 335 455 -1 870 -1 c 0
 1285 -1 1622 335 1622 750 c 0
 1622 1165 1285 1501 870 1501 c 0
 455 1501 118 1165 118 750 c 0
EndSplineSet
Refer: 29 82 N 0.6 0 0 0.6 469 296 2
EndChar

StartChar: logicalnot
Encoding: 172 172 107
GlifName: logicalnot
Width: 971
Flags: HMW
LayerCount: 2
Fore
SplineSet
833 1211 m 1
 120 1211 l 1
 120 1230 l 1
 852 1230 l 1
 852 826 l 1
 833 826 l 1
 833 1211 l 1
EndSplineSet
EndChar

StartChar: guillemotleft
Encoding: 171 171 108
GlifName: guillemotleft
Width: 1389
Flags: HMW
LayerCount: 2
Fore
SplineSet
862 776 m 1
 1280 299 l 1
 1270 290 l 1
 610 750 l 1
 610 800 l 1
 1270 1260 l 1
 1280 1250 l 1
 862 776 l 1
302 776 m 1
 719 299 l 1
 710 290 l 1
 50 750 l 1
 50 800 l 1
 710 1260 l 1
 719 1250 l 1
 302 776 l 1
EndSplineSet
EndChar

StartChar: mu
Encoding: 181 181 111
GlifName: mu
Width: 1173
VWidth: 2309
Flags: HMW
LayerCount: 2
Fore
SplineSet
529 -246 m 0
 595 -246 647 -304 647 -380 c 0
 647 -458 605 -520 459 -520 c 0
 319 -520 199 -422 199 -242 c 2
 199 642 l 1
 217 642 l 1
 217 -242 l 2
 217 -410 332 -517 496 -500 c 1
 496 -507 l 1
 447 -485 409 -436 409 -368 c 0
 409 -302 463 -246 529 -246 c 0
EndSplineSet
Refer: 58 117 N 1 0 0 1 0 0 2
EndChar

StartChar: asciicircum
Encoding: 94 94 113
GlifName: asciicircum
Width: 1089
Flags: HMW
LayerCount: 2
Fore
SplineSet
544 1446 m 1
 211 1250 l 1
 200 1260 l 1
 480 1540 l 1
 610 1540 l 1
 890 1260 l 1
 878 1250 l 1
 544 1446 l 1
EndSplineSet
EndChar

StartChar: degree
Encoding: 176 176 115
GlifName: degree
Width: 639
Flags: HMW
LayerCount: 2
Fore
SplineSet
80 1360 m 0
 80 1492 188 1600 320 1600 c 0
 452 1600 560 1492 560 1360 c 0
 560 1228 452 1120 320 1120 c 0
 188 1120 80 1228 80 1360 c 0
134 1360 m 0
 134 1254 214 1174 320 1174 c 0
 426 1174 505 1254 505 1360 c 0
 505 1466 426 1545 320 1545 c 0
 214 1545 134 1466 134 1360 c 0
EndSplineSet
EndChar

StartChar: onequarter
Encoding: 188 188 119
GlifName: onequarter
Width: 1281
Flags: HMW
LayerCount: 2
Fore
SplineSet
1037 1300 m 1
 1055 1300 l 1
 95 -200 l 1
 77 -200 l 1
 1037 1300 l 1
EndSplineSet
Refer: 6 52 N 0.6 0 0 0.6 540 -206 2
Refer: 3 49 N 0.6 0 0 0.6 -16 712 2
EndChar

StartChar: onehalf
Encoding: 189 189 120
GlifName: onehalf
Width: 1339
Flags: HMW
LayerCount: 2
Fore
SplineSet
1037 1300 m 1
 1055 1300 l 1
 95 -200 l 1
 77 -200 l 1
 1037 1300 l 1
EndSplineSet
Refer: 4 50 N 0.6 0 0 0.6 682 -202 2
Refer: 3 49 N 0.6 0 0 0.6 -16 712 2
EndChar

StartChar: threequarters
Encoding: 190 190 121
GlifName: threequarters
Width: 1401
Flags: HMW
LayerCount: 2
Fore
SplineSet
1157 1300 m 1
 1175 1300 l 1
 215 -200 l 1
 197 -200 l 1
 1157 1300 l 1
EndSplineSet
Refer: 5 51 N 0.6 0 0 0.6 10 708 2
Refer: 6 52 N 0.6 0 0 0.6 660 -206 2
EndChar

StartChar: grave
Encoding: 96 96 123
GlifName: grave
Width: 789
Flags: HMW
LayerCount: 2
Fore
SplineSet
180 1442 m 2
 142 1442 110 1472 110 1510 c 0
 110 1548 144 1591 200 1576 c 2
 675 1449 l 1
 669 1433 l 1
 180 1442 l 2
EndSplineSet
EndChar

StartChar: acute
Encoding: 180 180 124
GlifName: acute
Width: 789
Flags: HMW
LayerCount: 2
Fore
SplineSet
610 1442 m 2
 121 1433 l 1
 115 1449 l 1
 590 1576 l 2
 646 1591 680 1548 680 1510 c 0
 680 1472 648 1442 610 1442 c 2
EndSplineSet
EndChar

StartChar: cedilla
Encoding: 184 184 128
GlifName: cedilla
Width: 1099
Flags: HMW
LayerCount: 2
Fore
SplineSet
658 -277 m 0
 658 -175 564 -158 434 -158 c 1
 614 82 l 1
 637 82 l 1
 517 -78 l 1
 661 -84 800 -128 800 -240 c 0
 800 -340 704 -412 462 -412 c 1
 462 -394 l 1
 580 -394 658 -343 658 -277 c 0
EndSplineSet
EndChar

StartChar: divide
Encoding: 247 247 131
GlifName: divide
Width: 1119
Flags: HMW
LayerCount: 2
Fore
SplineSet
100 799 m 1
 1020 799 l 1
 1020 781 l 1
 100 781 l 1
 100 799 l 1
440 420 m 0
 440 486 494 540 560 540 c 0
 626 540 680 486 680 420 c 0
 680 354 626 300 560 300 c 0
 494 300 440 354 440 420 c 0
440 1130 m 0
 440 1196 494 1250 560 1250 c 0
 626 1250 680 1196 680 1130 c 0
 680 1064 626 1010 560 1010 c 0
 494 1010 440 1064 440 1130 c 0
EndSplineSet
EndChar

StartChar: ring
Encoding: 730 730 271
GlifName: ring
Width: 639
VWidth: 0
Flags: HMW
LayerCount: 2
Fore
SplineSet
140 1360 m 0
 140 1462 218 1540 320 1540 c 0
 422 1540 500 1462 500 1360 c 0
 500 1258 422 1180 320 1180 c 0
 218 1180 140 1258 140 1360 c 0
212 1360 m 0
 212 1279 235 1198 320 1198 c 0
 405 1198 428 1279 428 1360 c 0
 428 1441 405 1522 320 1522 c 0
 235 1522 212 1441 212 1360 c 0
EndSplineSet
EndChar

StartChar: tilde
Encoding: 732 732 272
GlifName: tilde
Width: 895
VWidth: 0
Flags: HMW
LayerCount: 2
Fore
SplineSet
254 1338 m 0
 188 1338 118 1304 118 1200 c 1
 100 1200 l 1
 100 1370 205 1454 303 1454 c 0
 450 1454 534 1296 642 1296 c 0
 724 1296 778 1330 778 1434 c 1
 796 1434 l 1
 796 1244 731 1180 613 1180 c 0
 472 1180 376 1338 254 1338 c 0
EndSplineSet
EndChar

StartChar: AE
Encoding: 198 198 274
GlifName: A_E_
Width: 2006
Flags: HMW
LayerCount: 2
Fore
SplineSet
1050 1500 m 1
 1069 1500 l 1
 230 0 l 1
 209 0 l 1
 1050 1500 l 1
30 18 m 1
 470 18 l 1
 470 0 l 1
 30 0 l 1
 30 18 l 1
493 500 m 1
 1070 500 l 1
 1070 481 l 1
 493 481 l 1
 493 500 l 1
1050 1500 m 1
 1240 1500 l 1
 1240 0 l 1
 1050 0 l 1
 1050 1500 l 1
1050 1500 m 1
 1927 1500 l 1
 1927 1090 l 1
 1909 1090 l 1
 1909 1304 1814 1482 1580 1482 c 2
 1050 1482 l 1
 1050 1500 l 1
1947 0 m 1
 870 0 l 1
 870 18 l 1
 1560 18 l 2
 1834 18 1928 196 1928 450 c 1
 1947 450 l 1
 1947 0 l 1
1569 556 m 1
 1569 690 1474 767 1360 767 c 2
 1240 767 l 1
 1240 786 l 1
 1360 786 l 2
 1474 786 1569 852 1569 986 c 1
 1587 986 l 1
 1587 556 l 1
 1569 556 l 1
EndSplineSet
EndChar

StartChar: ae
Encoding: 230 230 277
GlifName: ae
Width: 1525
VWidth: 2309
Flags: HMW
LayerCount: 2
Fore
SplineSet
140 732 m 0
 140 856 314 936 496 936 c 0
 756 936 772 772 772 610 c 1
 742 362 l 1
 742 114 622 -20 400 -20 c 0
 242 -20 70 38 70 226 c 0
 70 394 224 511 508 511 c 2
 676 511 l 1
 676 493 l 1
 508 493 l 2
 356 493 274 380 274 256 c 0
 274 122 326 0 436 0 c 0
 550 0 632 160 632 362 c 2
 632 610 l 2
 632 744 616 910 456 910 c 0
 344 910 262 870 220 830 c 1
 304 852 362 800 362 736 c 0
 362 656 294 622 244 622 c 0
 184 622 140 660 140 732 c 0
1262 520 m 1
 1260 680 1238 921 1060 921 c 0
 862 921 810 688 810 460 c 0
 810 232 872 1 1090 1 c 0
 1278 1 1408 127 1458 286 c 1
 1476 286 l 1
 1424 112 1288 -20 1066 -20 c 0
 804 -20 640 160 640 460 c 0
 640 760 798 940 1060 940 c 0
 1358 940 1474 720 1474 502 c 1
 734 502 l 1
 734 520 l 1
 1262 520 l 1
EndSplineSet
EndChar

StartChar: perthousand
Encoding: 8240 8240 285
GlifName: perthousand
Width: 2939
Flags: HMW
LayerCount: 2
Fore
SplineSet
2290 420 m 0
 2290 216 2322 -1 2470 -1 c 0
 2618 -1 2650 216 2650 420 c 0
 2650 624 2618 842 2470 842 c 0
 2322 842 2290 624 2290 420 c 0
2070 420 m 0
 2070 706 2244 860 2470 860 c 0
 2696 860 2870 706 2870 420 c 0
 2870 134 2656 -20 2470 -20 c 0
 2244 -20 2070 134 2070 420 c 0
1350 420 m 0
 1350 216 1382 -1 1530 -1 c 0
 1678 -1 1710 216 1710 420 c 0
 1710 624 1678 842 1530 842 c 0
 1382 842 1350 624 1350 420 c 0
1130 420 m 0
 1130 706 1304 860 1530 860 c 0
 1756 860 1930 706 1930 420 c 0
 1930 134 1716 -20 1530 -20 c 0
 1304 -20 1130 134 1130 420 c 0
1512 1500 m 1
 1534 1500 l 1
 488 0 l 1
 466 0 l 1
 1512 1500 l 1
290 1080 m 0
 290 876 322 658 470 658 c 0
 618 658 650 876 650 1080 c 0
 650 1284 618 1501 470 1501 c 0
 322 1501 290 1284 290 1080 c 0
70 1080 m 0
 70 1366 244 1520 470 1520 c 0
 696 1520 870 1366 870 1080 c 0
 870 794 656 640 470 640 c 0
 244 640 70 794 70 1080 c 0
EndSplineSet
EndChar

StartChar: uni2031
Encoding: 8241 8241 286
GlifName: uni2031
Width: 3899
Flags: HMW
LayerCount: 2
Fore
SplineSet
3250 420 m 0
 3250 216 3282 -1 3430 -1 c 0
 3578 -1 3610 216 3610 420 c 0
 3610 624 3578 842 3430 842 c 0
 3282 842 3250 624 3250 420 c 0
3030 420 m 0
 3030 706 3204 860 3430 860 c 0
 3656 860 3830 706 3830 420 c 0
 3830 134 3616 -20 3430 -20 c 0
 3204 -20 3030 134 3030 420 c 0
2290 420 m 0
 2290 216 2322 -1 2470 -1 c 0
 2618 -1 2650 216 2650 420 c 0
 2650 624 2618 842 2470 842 c 0
 2322 842 2290 624 2290 420 c 0
2070 420 m 0
 2070 706 2244 860 2470 860 c 0
 2696 860 2870 706 2870 420 c 0
 2870 134 2656 -20 2470 -20 c 0
 2244 -20 2070 134 2070 420 c 0
1350 420 m 0
 1350 216 1382 -1 1530 -1 c 0
 1678 -1 1710 216 1710 420 c 0
 1710 624 1678 842 1530 842 c 0
 1382 842 1350 624 1350 420 c 0
1130 420 m 0
 1130 706 1304 860 1530 860 c 0
 1756 860 1930 706 1930 420 c 0
 1930 134 1716 -20 1530 -20 c 0
 1304 -20 1130 134 1130 420 c 0
1512 1500 m 1
 1534 1500 l 1
 488 0 l 1
 466 0 l 1
 1512 1500 l 1
290 1080 m 0
 290 876 322 658 470 658 c 0
 618 658 650 876 650 1080 c 0
 650 1284 618 1501 470 1501 c 0
 322 1501 290 1284 290 1080 c 0
70 1080 m 0
 70 1366 244 1520 470 1520 c 0
 696 1520 870 1366 870 1080 c 0
 870 794 656 640 470 640 c 0
 244 640 70 794 70 1080 c 0
EndSplineSet
EndChar

StartChar: uniFB00
Encoding: 64256 64256 290
GlifName: uniF_B_00
Width: 1354
VWidth: 2309
Flags: HMW
LayerCount: 2
Fore
SplineSet
58 18 m 1
 1227 18 l 1
 1227 0 l 1
 58 0 l 1
 58 18 l 1
58 920 m 1
 1267 920 l 1
 1267 902 l 1
 58 902 l 1
 58 920 l 1
910 1246 m 1
 903 1306 817 1402 674 1402 c 0
 509 1402 417 1234 417 980 c 2
 417 0 l 1
 238 0 l 1
 238 924 l 2
 238 1186 409 1420 674 1420 c 0
 839 1420 944 1298 944 1204 c 0
 944 1122 890 1080 830 1080 c 0
 780 1080 718 1114 718 1191 c 0
 718 1266 773 1299 830 1299 c 0
 866 1299 897 1280 910 1246 c 1
1428 1365 m 5
 1416 1426 1342 1501 1208 1501 c 0
 1048 1501 994 1334 994 1080 c 2
 994 0 l 1
 814 0 l 1
 814 1024 l 2
 814 1286 948 1520 1208 1520 c 0
 1370 1520 1454 1416 1454 1322 c 0
 1454 1240 1400 1198 1340 1198 c 0
 1290 1198 1228 1232 1228 1309 c 0
 1228 1384 1282 1417 1337 1417 c 0
 1377 1417 1414 1397 1428 1365 c 5
EndSplineSet
Ligature2: "'liga' Standard Ligatures lookup 0-1" f f
LCarets2: 1 0
EndChar

StartChar: uniFB01
Encoding: 64257 64257 291
GlifName: uniF_B_01
Width: 1191
VWidth: 2309
Flags: HMW
LayerCount: 2
Fore
SplineSet
238 1024 m 2
 238 1286 397 1520 696 1520 c 0
 895 1520 984 1421 984 1306 c 0
 984 1224 930 1182 870 1182 c 0
 817 1182 758 1219 758 1291 c 0
 758 1363 813 1401 868 1401 c 0
 917 1401 950 1372 957 1344 c 1
 947 1421 873 1501 696 1501 c 0
 482 1501 417 1334 417 1080 c 2
 417 0 l 1
 238 0 l 1
 238 1024 l 2
58 18 m 1
 1114 18 l 1
 1114 0 l 1
 58 0 l 1
 58 18 l 1
794 902 m 1
 58 902 l 1
 58 920 l 1
 974 920 l 1
 974 0 l 1
 794 0 l 1
 794 902 l 1
EndSplineSet
Ligature2: "'liga' Standard Ligatures lookup 0-1" f i
LCarets2: 1 0
EndChar

StartChar: uniFB02
Encoding: 64258 64258 292
GlifName: uniF_B_02
Width: 1220
VWidth: 2309
Flags: HMW
LayerCount: 2
Fore
SplineSet
58 18 m 1
 1154 18 l 1
 1154 0 l 1
 58 0 l 1
 58 18 l 1
58 920 m 1
 690 920 l 1
 690 902 l 1
 58 902 l 1
 58 920 l 1
826 1460 m 1
 1006 1540 l 1
 1006 0 l 1
 826 0 l 1
 826 1460 l 1
867 1352 m 5
 860 1426 784 1501 649 1501 c 0
 457 1501 417 1334 417 1080 c 2
 417 0 l 1
 238 0 l 1
 238 1024 l 2
 238 1286 389 1520 649 1520 c 0
 811 1520 897 1420 897 1310 c 0
 897 1228 843 1186 783 1186 c 0
 733 1186 670 1214 670 1294 c 0
 670 1372 727 1405 789 1405 c 0
 837 1405 857 1388 867 1352 c 5
EndSplineSet
Ligature2: "'liga' Standard Ligatures lookup 0-1" f l
LCarets2: 1 0
EndChar

StartChar: uniFB03
Encoding: 64259 64259 293
GlifName: uniF_B_03
Width: 1767
VWidth: 2309
Flags: HMW
LayerCount: 2
Fore
SplineSet
814 1025 m 6
 814 1287 975 1521 1272 1521 c 4
 1471 1521 1560 1421 1560 1306 c 0
 1560 1224 1506 1182 1446 1182 c 0
 1393 1182 1334 1219 1334 1291 c 0
 1334 1363 1389 1401 1444 1401 c 0
 1491 1401 1527 1372 1534 1344 c 1
 1525 1418 1449 1502 1272 1502 c 0
 1060 1502 994 1342 994 1081 c 2
 994 1 l 1
 814 1 l 1
 814 1025 l 6
58 18 m 1
 1690 18 l 1
 1690 0 l 1
 58 0 l 1
 58 18 l 1
238 924 m 2
 238 1184 407 1420 674 1420 c 0
 839 1420 944 1302 944 1204 c 0
 944 1122 890 1080 830 1080 c 0
 780 1080 718 1114 718 1191 c 0
 718 1266 773 1301 828 1301 c 0
 868 1301 899 1281 913 1244 c 1
 905 1306 817 1402 674 1402 c 0
 507 1402 417 1234 417 980 c 2
 417 0 l 1
 238 0 l 1
 238 924 l 2
1370 902 m 1
 58 902 l 1
 58 920 l 1
 1550 920 l 1
 1550 0 l 1
 1370 0 l 1
 1370 902 l 1
EndSplineSet
Ligature2: "'liga' Standard Ligatures lookup 0-1" f f i
LCarets2: 2 0 0
EndChar

StartChar: uniFB04
Encoding: 64260 64260 294
GlifName: uniF_B_04
Width: 1782
VWidth: 2309
Flags: HMW
LayerCount: 2
Fore
SplineSet
58 18 m 1
 1722 18 l 1
 1722 0 l 1
 58 0 l 1
 58 18 l 1
58 920 m 1
 1258 920 l 1
 1258 902 l 1
 58 902 l 1
 58 920 l 1
1394 1460 m 1
 1574 1540 l 1
 1574 0 l 1
 1394 0 l 1
 1394 1460 l 1
902 1246 m 1
 892 1308 811 1402 668 1402 c 0
 505 1402 417 1234 417 980 c 2
 417 0 l 1
 238 0 l 1
 238 924 l 2
 238 1186 405 1420 668 1420 c 0
 833 1420 936 1298 936 1204 c 0
 936 1122 882 1080 822 1080 c 0
 772 1080 709 1114 709 1191 c 0
 709 1266 765 1299 820 1299 c 0
 859 1299 889 1280 902 1246 c 1
1432 1350 m 5
 1430 1418 1357 1501 1217 1501 c 0
 1025 1501 986 1334 986 1080 c 2
 986 0 l 1
 806 0 l 1
 806 1024 l 2
 806 1286 957 1520 1217 1520 c 0
 1379 1520 1463 1420 1463 1310 c 0
 1463 1228 1409 1186 1349 1186 c 0
 1299 1186 1236 1214 1236 1294 c 0
 1236 1372 1292 1405 1354 1405 c 0
 1402 1405 1417 1383 1432 1350 c 5
EndSplineSet
Ligature2: "'liga' Standard Ligatures lookup 0-1" f f l
LCarets2: 2 0 0
EndChar

StartChar: ogonek
Encoding: 731 731 295
GlifName: ogonek
Width: 1099
Flags: HMW
LayerCount: 2
Fore
SplineSet
776 -226 m 1
 746 -282 688 -372 546 -372 c 0
 444 -372 330 -320 330 -200 c 0
 330 -40 486 46 608 86 c 1
 617 75 l 1
 555 41 516 -48 516 -166 c 0
 516 -256 558 -324 626 -324 c 0
 695 -324 730 -276 765 -218 c 1
 776 -226 l 1
EndSplineSet
EndChar

StartChar: dotlessi
Encoding: 305 305 296
GlifName: dotlessi
Width: 560
VWidth: 2309
Flags: HMW
LayerCount: 2
Fore
SplineSet
50 18 m 1
 510 18 l 1
 510 0 l 1
 50 0 l 1
 50 18 l 1
190 902 m 1
 50 902 l 1
 50 920 l 1
 371 920 l 1
 371 0 l 1
 190 0 l 1
 190 902 l 1
EndSplineSet
EndChar

StartChar: uni0237
Encoding: 567 567 297
GlifName: uni0237
Width: 587
VWidth: 2309
Flags: HMW
LayerCount: 2
Fore
SplineSet
416 920 m 1
 416 -24 l 2
 416 -286 362 -520 102 -520 c 0
 -60 -520 -145 -416 -145 -302 c 0
 -145 -220 -91 -178 -31 -178 c 0
 19 -178 82 -206 82 -286 c 0
 82 -360 30 -397 -38 -397 c 0
 -71 -397 -108 -371 -118 -343 c 1
 -112 -420 -33 -501 91 -501 c 0
 271 -501 236 -214 236 40 c 2
 236 902 l 1
 59 902 l 1
 59 920 l 1
 416 920 l 1
EndSplineSet
EndChar

StartChar: kgreenlandic
Encoding: 312 312 306
GlifName: kgreenlandic
Width: 1184
VWidth: 2309
Flags: HMW
LayerCount: 2
Fore
SplineSet
1073 0 m 1
 850 0 l 1
 402 524 l 1
 905 920 l 1
 930 920 l 1
 549 616 l 1
 1073 0 l 1
674 18 m 1
 1148 18 l 1
 1148 0 l 1
 674 0 l 1
 674 18 l 1
1081 902 m 1
 634 902 l 1
 634 920 l 1
 1081 920 l 1
 1081 902 l 1
56 18 m 1
 556 18 l 1
 556 0 l 1
 56 0 l 1
 56 18 l 1
237 902 m 1
 56 902 l 1
 56 920 l 1
 417 920 l 1
 417 0 l 1
 237 0 l 1
 237 902 l 1
EndSplineSet
EndChar

StartChar: breve
Encoding: 728 728 307
GlifName: breve
Width: 559
VWidth: 2309
Flags: HMW
LayerCount: 2
Fore
SplineSet
72 1518 m 1
 72 1420 172 1370 280 1370 c 0
 388 1370 489 1420 489 1518 c 1
 500 1518 l 1
 500 1396 460 1260 280 1260 c 0
 100 1260 60 1396 60 1518 c 1
 72 1518 l 1
EndSplineSet
EndChar

StartChar: thorn
Encoding: 254 254 318
GlifName: thorn
Width: 1164
VWidth: 2309
Flags: HMW
LayerCount: 2
Fore
SplineSet
346 460 m 0
 346 750 469 938 676 938 c 0
 891 938 1095 760 1095 460 c 0
 1095 160 891 -20 676 -20 c 0
 469 -20 346 170 346 460 c 0
360 460 m 0
 360 168 491 10 644 10 c 0
 807 10 886 192 886 460 c 0
 886 728 807 908 644 908 c 0
 491 908 360 752 360 460 c 0
41 -482 m 1
 500 -482 l 1
 500 -500 l 1
 41 -500 l 1
 41 -482 l 1
180 1482 m 1
 41 1482 l 1
 41 1500 l 1
 360 1500 l 1
 360 -500 l 1
 180 -500 l 1
 180 1482 l 1
EndSplineSet
EndChar

StartChar: Thorn
Encoding: 222 222 319
GlifName: T_horn
Width: 1209
Flags: HMW
LayerCount: 2
Fore
SplineSet
210 1500 m 1
 400 1500 l 1
 400 0 l 1
 210 0 l 1
 210 1500 l 1
30 18 m 1
 580 18 l 1
 580 0 l 1
 30 0 l 1
 30 18 l 1
30 1500 m 1
 580 1500 l 1
 580 1482 l 1
 30 1482 l 1
 30 1500 l 1
620 360 m 2
 360 360 l 1
 360 378 l 1
 620 378 l 2
 812 378 920 602 920 780 c 0
 920 958 812 1182 620 1182 c 2
 360 1182 l 1
 360 1200 l 1
 620 1200 l 2
 982 1200 1140 1040 1140 780 c 0
 1140 520 982 360 620 360 c 2
EndSplineSet
EndChar

StartChar: Lslash
Encoding: 321 321 324
GlifName: L_slash
Width: 1164
Flags: HMW
LayerCount: 2
Fore
SplineSet
46 720 m 1
 736 1160 l 1
 736 1138 l 1
 46 698 l 1
 46 720 l 1
EndSplineSet
Refer: 23 76 N 1 0 0 1 0 0 2
EndChar

StartChar: lslash
Encoding: 322 322 325
GlifName: lslash
Width: 643
VWidth: 2309
Flags: HMW
LayerCount: 2
Fore
SplineSet
54 800 m 1
 625 1160 l 1
 625 1139 l 1
 54 779 l 1
 54 800 l 1
EndSplineSet
Refer: 49 108 N 1 0 0 1 0 0 2
EndChar

StartChar: eth
Encoding: 240 240 329
GlifName: eth
Width: 1119
VWidth: 2309
Flags: HMW
LayerCount: 2
Fore
SplineSet
220 1260 m 1
 1060 1260 l 1
 1060 1242 l 1
 220 1242 l 1
 220 1260 l 1
1020 620 m 0
 1020 200 834 -20 532 -20 c 0
 230 -20 60 200 60 500 c 0
 60 840 296 980 498 980 c 0
 760 980 836 794 836 560 c 1
 820 560 l 1
 820 785 740 950 542 950 c 0
 364 950 260 768 260 500 c 0
 260 272 308 -1 526 -1 c 0
 744 -1 820 292 820 560 c 1
 818 660 l 1
 818 1052 558 1503 210 1503 c 1
 210 1520 l 1
 655 1520 1020 1109 1020 620 c 0
EndSplineSet
EndChar

StartChar: OE
Encoding: 338 338 330
GlifName: O_E_
Width: 1915
Flags: HMW
LayerCount: 2
Fore
SplineSet
788 1482 m 1025,0,0
310 750 m 0,0,0
 310 386 420 18 788 18 c 1,0,0
 768 0 l 1,0,0
 362 0 80 304 80 750 c 0,0,0
 80 1196 362 1500 768 1500 c 1,0,0
 788 1482 l 1,0,0
 420 1482 310 1114 310 750 c 0,0,0
EndSplineSet
Refer: 16 69 N 1 0 0 1 719 0 2
EndChar

StartChar: germandbls
Encoding: 223 223 332
GlifName: germandbls
Width: 1361
VWidth: 2309
Flags: HMW
LayerCount: 2
Fore
SplineSet
686 807 m 1
 686 819 l 1
 944 819 1020 1014 1020 1142 c 0
 1020 1286 954 1503 746 1503 c 0
 478 1503 390 1246 390 962 c 2
 390 0 l 1
 210 0 l 1
 210 982 l 2
 210 1328 420 1520 746 1520 c 0
 1032 1520 1222 1348 1222 1162 c 0
 1222 962 1088 807 686 807 c 1
30 18 m 1
 570 18 l 1
 570 0 l 1
 30 0 l 1
 30 18 l 1
1282 320 m 0
 1282 120 1104 -20 902 -20 c 0
 760 -20 646 88 646 272 c 0
 646 354 700 402 770 402 c 0
 830 402 878 362 878 290 c 0
 878 226 822 180 764 180 c 0
 714 180 679 215 668 248 c 1
 675 98 774 1 892 1 c 0
 1050 1 1080 192 1080 320 c 0
 1080 508 1024 801 686 801 c 1
 686 813 l 1
 1168 813 1282 580 1282 320 c 0
EndSplineSet
EndChar

StartChar: circumflex
Encoding: 710 710 335
GlifName: circumflex
Width: 769
Flags: HMW
LayerCount: 2
Fore
SplineSet
384 1450 m 1
 109 1310 l 1
 100 1320 l 1
 320 1540 l 1
 450 1540 l 1
 670 1320 l 1
 661 1310 l 1
 384 1450 l 1
EndSplineSet
EndChar

StartChar: caron
Encoding: 711 711 336
GlifName: caron
Width: 769
Flags: HMW
LayerCount: 2
Fore
SplineSet
384 1430 m 1
 660 1569 l 1
 670 1560 l 1
 450 1340 l 1
 320 1340 l 1
 100 1560 l 1
 110 1569 l 1
 384 1430 l 1
EndSplineSet
EndChar

StartChar: pi
Encoding: 960 960 337
GlifName: pi
Width: 1161
VWidth: 2309
Flags: HMW
LayerCount: 2
Fore
SplineSet
1092 206 m 1
 1046 66 978 -20 876 -20 c 0
 782 -20 692 28 692 146 c 2
 692 840 l 1
 872 840 l 1
 872 173 l 2
 872 133 898 101 946 101 c 0
 998 101 1038 132 1079 215 c 1
 1092 206 l 1
208 -20 m 0
 126 -20 90 26 90 76 c 0
 90 212 314 164 314 558 c 2
 314 900 l 1
 426 900 l 1
 426 486 l 2
 426 170 344 -20 208 -20 c 0
1052 920 m 1
 1052 740 l 1
 100 740 l 1
 100 590 l 1
 82 590 l 1
 82 920 l 1
 1052 920 l 1
EndSplineSet
EndChar

StartChar: uni1E9E
Encoding: 7838 7838 338
GlifName: uni1E_9E_
Width: 1601
VWidth: 2309
Flags: HMW
LayerCount: 2
Fore
SplineSet
30 18 m 1
 590 18 l 1
 590 0 l 1
 30 0 l 1
 30 18 l 1
1047 811 m 1
 979 819 913 824 846 830 c 1
 1314 1408 l 1
 1239 1450 1105 1501 926 1501 c 0
 578 1501 410 1206 410 862 c 2
 410 0 l 1
 210 0 l 1
 210 882 l 2
 210 1288 520 1520 926 1520 c 0
 1232 1520 1402 1388 1462 1322 c 1
 1047 811 l 1
636 233 m 5
 646 124 767 4 982 4 c 0
 1220 4 1310 192 1310 380 c 0
 1310 528 1284 812 846 812 c 1
 846 830 l 1
 1428 830 1522 600 1522 380 c 0
 1522 120 1304 -20 1022 -20 c 0
 738 -20 610 128 610 272 c 0
 610 354 660 402 730 402 c 0
 790 402 838 362 838 290 c 0
 838 226 782 180 724 180 c 0
 682 180 644 209 636 233 c 5
EndSplineSet
EndChar

StartChar: uni203D
Encoding: 8253 8253 339
GlifName: uni203D_
Width: 1199
Flags: HMW
LayerCount: 2
Fore
SplineSet
732 968 m 0
 710 776 603 556 603 416 c 1
 584 416 l 1
 584 556 518 776 496 968 c 0
 494 982 494 994 494 1006 c 0
 494 1062 520 1156 614 1156 c 0
 708 1156 734 1062 734 1006 c 0
 734 994 734 982 732 968 c 0
140 1082 m 0
 140 1266 328 1520 652 1520 c 0
 954 1520 1140 1360 1140 1100 c 0
 1140 860 896 670 654 670 c 1
 654 684 l 1
 828 706 958 922 958 1120 c 0
 958 1308 824 1486 606 1486 c 0
 338 1486 182 1261 173 1129 c 1
 183 1153 208 1180 254 1180 c 0
 312 1180 368 1140 368 1070 c 0
 368 990 304 958 254 958 c 0
 194 958 140 1000 140 1082 c 0
EndSplineSet
Refer: 1 46 N 1 0 0 1 398 0 2
EndChar

StartChar: R.alt
Encoding: 65536 -1 340
GlifName: R_.alt
Width: 1367
Flags: HMW
LayerCount: 2
Fore
SplineSet
707 762 m 2
 407 762 l 1
 407 774 l 1
 707 774 l 2
 899 774 1007 907 1007 1125 c 0
 1007 1343 899 1482 707 1482 c 2
 47 1482 l 1
 47 1500 l 1
 707 1500 l 2
 1009 1500 1207 1385 1207 1125 c 0
 1207 865 1029 762 707 762 c 2
47 18 m 1
 677 18 l 1
 677 0 l 1
 47 0 l 1
 47 18 l 1
267 1500 m 1
 457 1500 l 1
 457 0 l 1
 267 0 l 1
 267 1500 l 1
1337 0 m 1
 1305 0 1269 0 1197 0 c 0
 731 0 1169 755 697 755 c 2
 407 755 l 1
 407 767 l 1
 737 767 l 2
 1423 767 1041 18 1267 18 c 0
 1309 18 1309 18 1337 18 c 1
 1337 0 l 1
EndSplineSet
EndChar

StartChar: J.alt
Encoding: 65537 -1 341
GlifName: J_.alt
Width: 1081
Flags: HMW
LayerCount: 2
Fore
SplineSet
422 1500 m 1
 1052 1500 l 1
 1052 1482 l 1
 422 1482 l 1
 422 1500 l 1
662 1500 m 1
 852 1500 l 1
 852 560 l 2
 852 240 694 -20 372 -20 c 0
 138 -20 40 150 40 290 c 0
 40 414 114 480 194 480 c 0
 264 480 326 444 326 352 c 0
 326 282 260 226 192 226 c 0
 138 226 72 252 58 298 c 1
 53 148 160 -1 372 -1 c 0
 614 -1 662 220 662 500 c 2
 662 1500 l 1
EndSplineSet
EndChar

StartChar: four.alt
Encoding: 65538 -1 342
GlifName: four.alt
Width: 1189
VWidth: 2309
Flags: HMW
LayerCount: 2
Fore
SplineSet
1060 18 m 1
 1060 0 l 1
 530 0 l 1
 530 18 l 1
 1060 18 l 1
910 996 m 1
 910 -1 l 1
 720 -1 l 1
 720 956 l 1
 780 956 870 976 910 996 c 1
61 385 m 1
 1090 385 l 1
 1090 367 l 1
 30 367 l 1
 310 767 640 1200 680 1500 c 1
 876 1500 l 1
 838 1210 343 773 61 385 c 1
EndSplineSet
EndChar

StartChar: fj.lig
Encoding: 65539 -1 343
GlifName: fj.lig
Width: 1125
VWidth: 2309
Flags: HMW
LayerCount: 2
Fore
SplineSet
58 18 m 1
 608 18 l 1
 608 0 l 1
 58 0 l 1
 58 18 l 1
948 -24 m 2
 948 -286 894 -520 634 -520 c 0
 472 -520 388 -416 388 -302 c 0
 388 -220 441 -178 501 -178 c 0
 551 -178 614 -206 614 -286 c 0
 614 -364 560 -397 495 -397 c 0
 459 -397 422 -371 414 -343 c 1
 424 -427 505 -501 624 -501 c 0
 804 -501 768 -214 768 40 c 2
 768 902 l 1
 58 902 l 1
 58 920 l 1
 948 920 l 1
 948 -24 l 2
933 1347 m 5
 924 1418 851 1501 671 1501 c 0
 476 1501 417 1334 417 1080 c 2
 417 0 l 1
 238 0 l 1
 238 1024 l 2
 238 1286 371 1520 671 1520 c 0
 873 1520 958 1420 958 1306 c 0
 958 1224 904 1182 844 1182 c 0
 794 1182 732 1211 732 1291 c 0
 732 1365 793 1401 845 1401 c 0
 895 1401 924 1373 933 1347 c 5
EndSplineSet
LCarets2: 1 0
Ligature2: "'liga' Standard Ligatures lookup 0-1" f j
EndChar

StartChar: uni2116
Encoding: 8470 8470 344
GlifName: uni2116
Width: 2196
Flags: HMW
LayerCount: 2
Fore
SplineSet
1635 1140 m 0
 1635 912 1685 778 1803 778 c 0
 1921 778 1971 912 1971 1140 c 0
 1971 1368 1921 1501 1803 1501 c 0
 1685 1501 1635 1368 1635 1140 c 0
1465 1140 m 0
 1465 1380 1601 1520 1803 1520 c 0
 2005 1520 2142 1380 2142 1140 c 0
 2142 900 2005 760 1803 760 c 0
 1601 760 1465 900 1465 1140 c 0
EndSplineSet
Refer: 85 45 N 1 0 0 1 1443 80 2
Refer: 25 78 N 1 0 0 1 0 0 2
EndChar

StartChar: Euro
Encoding: 8364 8364 345
GlifName: E_uro
Width: 1419
Flags: HMW
LayerCount: 2
Fore
SplineSet
1278 1286 m 1
 1250 1369 1130 1500 938 1500 c 0
 600 1500 480 1098 480 750 c 0
 480 362 632 3 890 3 c 0
 1092 3 1236 173 1286 356 c 1
 1306 356 l 1
 1254 162 1108 -20 866 -20 c 0
 564 -20 250 290 250 750 c 0
 250 1170 516 1520 918 1520 c 0
 1162 1520 1310 1336 1310 1232 c 0
 1310 1150 1256 1108 1196 1108 c 0
 1146 1108 1082 1140 1082 1220 c 0
 1082 1290 1138 1330 1196 1330 c 0
 1242 1330 1270 1300 1278 1286 c 1
EndSplineSet
Refer: 88 61 N 1 0 0 1 -60 -140 2
EndChar

